  0
SECTION
  2
BLOCKS
  0
ENDSEC
  0
SECTION
  2
ENTITIES
  0
LINE
  8
0
 10
78.2976
 20
0.0725403
 11
81.4949
 21
0.281769
  0
LINE
  8
0
 10
81.4949
 20
0.281769
 11
84.6804
 21
0.627365
  0
LINE
  8
0
 10
84.6804
 20
0.627365
 11
87.8483
 21
1.10872
  0
LINE
  8
0
 10
87.8483
 20
1.10872
 11
90.9926
 21
1.72493
  0
LINE
  8
0
 10
90.9926
 20
1.72493
 11
94.1078
 21
2.4749
  0
LINE
  8
0
 10
94.1078
 20
2.4749
 11
95.7433
 21
2.92561
  0
LINE
  8
0
 10
95.7433
 20
2.92561
 11
98.8028
 21
3.8774
  0
LINE
  8
0
 10
98.8028
 20
3.8774
 11
101.819
 21
4.95898
  0
LINE
  8
0
 10
101.819
 20
4.95898
 11
104.786
 21
6.16841
  0
LINE
  8
0
 10
104.786
 20
6.16841
 11
107.699
 21
7.50346
  0
LINE
  8
0
 10
107.699
 20
7.50346
 11
110.51
 21
8.93939
  0
LINE
  8
0
 10
110.51
 20
8.93939
 11
113.3
 21
10.5164
  0
LINE
  8
0
 10
113.3
 20
10.5164
 11
114.908
 21
11.4993
  0
LINE
  8
0
 10
114.908
 20
11.4993
 11
117.312
 21
13.0751
  0
LINE
  8
0
 10
117.312
 20
13.0751
 11
118.893
 21
14.1855
  0
LINE
  8
0
 10
118.893
 20
14.1855
 11
121.451
 21
16.1158
  0
LINE
  8
0
 10
121.451
 20
16.1158
 11
123.709
 21
17.9696
  0
LINE
  8
0
 10
123.709
 20
17.9696
 11
126.066
 21
20.07
  0
LINE
  8
0
 10
126.066
 20
20.07
 11
128.365
 21
22.3013
  0
LINE
  8
0
 10
128.365
 20
22.3013
 11
130.567
 21
24.6287
  0
LINE
  8
0
 10
130.567
 20
24.6287
 11
131.969
 21
26.2198
  0
LINE
  8
0
 10
131.969
 20
26.2198
 11
134.001
 21
28.6976
  0
LINE
  8
0
 10
134.001
 20
28.6976
 11
135.759
 21
31.0306
  0
LINE
  8
0
 10
135.759
 20
31.0306
 11
136.872
 21
32.6102
  0
LINE
  8
0
 10
136.872
 20
32.6102
 11
138.451
 21
35.0121
  0
LINE
  8
0
 10
138.451
 20
35.0121
 11
140.101
 21
37.7588
  0
LINE
  8
0
 10
140.101
 20
37.7588
 11
141.632
 21
40.5734
  0
LINE
  8
0
 10
141.632
 20
40.5734
 11
143.042
 21
43.4508
  0
LINE
  8
0
 10
143.042
 20
43.4508
 11
144.345
 21
46.4294
  0
LINE
  8
0
 10
144.345
 20
46.4294
 11
145.502
 21
49.4174
  0
LINE
  8
0
 10
145.502
 20
49.4174
 11
146.516
 21
52.4071
  0
LINE
  8
0
 10
146.516
 20
52.4071
 11
147.048
 21
54.1662
  0
LINE
  8
0
 10
147.048
 20
54.1662
 11
147.872
 21
57.2626
  0
LINE
  8
0
 10
147.872
 20
57.2626
 11
148.573
 21
60.4376
  0
LINE
  8
0
 10
148.573
 20
60.4376
 11
149.128
 21
63.5933
  0
LINE
  8
0
 10
149.128
 20
63.5933
 11
149.542
 21
66.7231
  0
LINE
  8
0
 10
149.542
 20
66.7231
 11
149.831
 21
69.9615
  0
LINE
  8
0
 10
149.831
 20
69.9615
 11
149.977
 21
73.1624
  0
LINE
  8
0
 10
149.977
 20
73.1624
 11
149.988
 21
76.3665
  0
LINE
  8
0
 10
149.988
 20
76.3665
 11
149.861
 21
79.5682
  0
LINE
  8
0
 10
149.861
 20
79.5682
 11
149.597
 21
82.7615
  0
LINE
  8
0
 10
149.597
 20
82.7615
 11
149.191
 21
85.9873
  0
LINE
  8
0
 10
149.191
 20
85.9873
 11
148.654
 21
89.1462
  0
LINE
  8
0
 10
148.654
 20
89.1462
 11
147.972
 21
92.3251
  0
LINE
  8
0
 10
147.972
 20
92.3251
 11
147.165
 21
95.4261
  0
LINE
  8
0
 10
147.165
 20
95.4261
 11
146.227
 21
98.4898
  0
LINE
  8
0
 10
146.227
 20
98.4898
 11
145.661
 21
100.139
  0
LINE
  8
0
 10
145.661
 20
100.139
 11
144.523
 21
103.134
  0
LINE
  8
0
 10
144.523
 20
103.134
 11
143.238
 21
106.121
  0
LINE
  8
0
 10
143.238
 20
106.121
 11
141.825
 21
109.049
  0
LINE
  8
0
 10
141.825
 20
109.049
 11
140.31
 21
111.872
  0
LINE
  8
0
 10
140.31
 20
111.872
 11
138.651
 21
114.668
  0
LINE
  8
0
 10
138.651
 20
114.668
 11
136.925
 21
117.312
  0
LINE
  8
0
 10
136.925
 20
117.312
 11
135.814
 21
118.893
  0
LINE
  8
0
 10
135.814
 20
118.893
 11
133.884
 21
121.451
  0
LINE
  8
0
 10
133.884
 20
121.451
 11
132.03
 21
123.709
  0
LINE
  8
0
 10
132.03
 20
123.709
 11
129.93
 21
126.066
  0
LINE
  8
0
 10
129.93
 20
126.066
 11
127.699
 21
128.365
  0
LINE
  8
0
 10
127.699
 20
128.365
 11
125.371
 21
130.567
  0
LINE
  8
0
 10
125.371
 20
130.567
 11
123.78
 21
131.969
  0
LINE
  8
0
 10
123.78
 20
131.969
 11
121.302
 21
134.001
  0
LINE
  8
0
 10
121.302
 20
134.001
 11
119.5
 21
135.372
  0
LINE
  8
0
 10
119.5
 20
135.372
 11
119.488
 21
172.047
  0
LINE
  8
0
 10
119.488
 20
172.047
 11
119.4
 21
173.113
  0
LINE
  8
0
 10
119.4
 20
173.113
 11
119.204
 21
174.256
  0
LINE
  8
0
 10
119.204
 20
174.256
 11
118.886
 21
175.447
  0
LINE
  8
0
 10
118.886
 20
175.447
 11
118.575
 21
176.316
  0
LINE
  8
0
 10
118.575
 20
176.316
 11
118.116
 21
177.336
  0
LINE
  8
0
 10
118.116
 20
177.336
 11
117.606
 21
178.258
  0
LINE
  8
0
 10
117.606
 20
178.258
 11
117.122
 21
178.995
  0
LINE
  8
0
 10
117.122
 20
178.995
 11
116.491
 21
179.818
  0
LINE
  8
0
 10
116.491
 20
179.818
 11
115.909
 21
180.47
  0
LINE
  8
0
 10
115.909
 20
180.47
 11
114.961
 21
181.369
  0
LINE
  8
0
 10
114.961
 20
181.369
 11
114.088
 21
182.055
  0
LINE
  8
0
 10
114.088
 20
182.055
 11
113.292
 21
182.584
  0
LINE
  8
0
 10
113.292
 20
182.584
 11
112.561
 21
183
  0
LINE
  8
0
 10
112.561
 20
183
 11
111.52
 21
183.492
  0
LINE
  8
0
 10
111.52
 20
183.492
 11
110.525
 21
183.861
  0
LINE
  8
0
 10
110.525
 20
183.861
 11
109.503
 21
184.148
  0
LINE
  8
0
 10
109.503
 20
184.148
 11
108.63
 21
184.324
  0
LINE
  8
0
 10
108.63
 20
184.324
 11
107.78
 21
184.437
  0
LINE
  8
0
 10
107.78
 20
184.437
 11
106.606
 21
184.5
  0
LINE
  8
0
 10
106.606
 20
184.5
 11
42.9529
 21
184.488
  0
LINE
  8
0
 10
42.9529
 20
184.488
 11
41.8869
 21
184.4
  0
LINE
  8
0
 10
41.8869
 20
184.4
 11
40.7439
 21
184.204
  0
LINE
  8
0
 10
40.7439
 20
184.204
 11
39.5528
 21
183.886
  0
LINE
  8
0
 10
39.5528
 20
183.886
 11
38.684
 21
183.575
  0
LINE
  8
0
 10
38.684
 20
183.575
 11
37.6637
 21
183.116
  0
LINE
  8
0
 10
37.6637
 20
183.116
 11
36.7424
 21
182.606
  0
LINE
  8
0
 10
36.7424
 20
182.606
 11
36.0049
 21
182.122
  0
LINE
  8
0
 10
36.0049
 20
182.122
 11
35.1821
 21
181.491
  0
LINE
  8
0
 10
35.1821
 20
181.491
 11
34.5297
 21
180.909
  0
LINE
  8
0
 10
34.5297
 20
180.909
 11
33.6307
 21
179.961
  0
LINE
  8
0
 10
33.6307
 20
179.961
 11
32.9445
 21
179.088
  0
LINE
  8
0
 10
32.9445
 20
179.088
 11
32.4157
 21
178.292
  0
LINE
  8
0
 10
32.4157
 20
178.292
 11
31.9996
 21
177.561
  0
LINE
  8
0
 10
31.9996
 20
177.561
 11
31.5084
 21
176.52
  0
LINE
  8
0
 10
31.5084
 20
176.52
 11
31.1388
 21
175.525
  0
LINE
  8
0
 10
31.1388
 20
175.525
 11
30.8516
 21
174.503
  0
LINE
  8
0
 10
30.8516
 20
174.503
 11
30.6758
 21
173.63
  0
LINE
  8
0
 10
30.6758
 20
173.63
 11
30.5632
 21
172.78
  0
LINE
  8
0
 10
30.5632
 20
172.78
 11
30.5004
 21
171.606
  0
LINE
  8
0
 10
30.5004
 20
171.606
 11
30.5
 21
135.372
  0
LINE
  8
0
 10
30.5
 20
135.372
 11
27.9599
 21
133.414
  0
LINE
  8
0
 10
27.9599
 20
133.414
 11
26.2914
 21
132.03
  0
LINE
  8
0
 10
26.2914
 20
132.03
 11
23.9344
 21
129.93
  0
LINE
  8
0
 10
23.9344
 20
129.93
 11
21.6348
 21
127.699
  0
LINE
  8
0
 10
21.6348
 20
127.699
 11
19.4326
 21
125.371
  0
LINE
  8
0
 10
19.4326
 20
125.371
 11
18.0308
 21
123.78
  0
LINE
  8
0
 10
18.0308
 20
123.78
 11
15.9993
 21
121.302
  0
LINE
  8
0
 10
15.9993
 20
121.302
 11
14.2407
 21
118.969
  0
LINE
  8
0
 10
14.2407
 20
118.969
 11
13.1283
 21
117.39
  0
LINE
  8
0
 10
13.1283
 20
117.39
 11
11.5495
 21
114.988
  0
LINE
  8
0
 10
11.5495
 20
114.988
 11
9.8994
 21
112.241
  0
LINE
  8
0
 10
9.8994
 20
112.241
 11
8.36813
 21
109.427
  0
LINE
  8
0
 10
8.36813
 20
109.427
 11
6.95848
 21
106.549
  0
LINE
  8
0
 10
6.95848
 20
106.549
 11
5.65506
 21
103.571
  0
LINE
  8
0
 10
5.65506
 20
103.571
 11
4.49802
 21
100.583
  0
LINE
  8
0
 10
4.49802
 20
100.583
 11
3.48384
 21
97.5929
  0
LINE
  8
0
 10
3.48384
 20
97.5929
 11
2.95174
 21
95.8338
  0
LINE
  8
0
 10
2.95174
 20
95.8338
 11
2.12762
 21
92.7374
  0
LINE
  8
0
 10
2.12762
 20
92.7374
 11
1.42735
 21
89.5624
  0
LINE
  8
0
 10
1.42735
 20
89.5624
 11
0.872498
 21
86.4067
  0
LINE
  8
0
 10
0.872498
 20
86.4067
 11
0.458115
 21
83.2769
  0
LINE
  8
0
 10
0.458115
 20
83.2769
 11
0.169434
 21
80.0385
  0
LINE
  8
0
 10
0.169434
 20
80.0385
 11
0.022522
 21
76.8376
  0
LINE
  8
0
 10
0.022522
 20
76.8376
 11
0.0124512
 21
73.6335
  0
LINE
  8
0
 10
0.0124512
 20
73.6335
 11
0.139252
 21
70.4318
  0
LINE
  8
0
 10
0.139252
 20
70.4318
 11
0.402695
 21
67.2385
  0
LINE
  8
0
 10
0.402695
 20
67.2385
 11
0.809174
 21
64.0127
  0
LINE
  8
0
 10
0.809174
 20
64.0127
 11
1.34618
 21
60.8538
  0
LINE
  8
0
 10
1.34618
 20
60.8538
 11
2.02849
 21
57.6749
  0
LINE
  8
0
 10
2.02849
 20
57.6749
 11
2.83508
 21
54.5739
  0
LINE
  8
0
 10
2.83508
 20
54.5739
 11
3.77339
 21
51.5102
  0
LINE
  8
0
 10
3.77339
 20
51.5102
 11
4.33867
 21
49.8609
  0
LINE
  8
0
 10
4.33867
 20
49.8609
 11
5.47691
 21
46.8657
  0
LINE
  8
0
 10
5.47691
 20
46.8657
 11
6.7616
 21
43.879
  0
LINE
  8
0
 10
6.7616
 20
43.879
 11
8.17451
 21
40.9507
  0
LINE
  8
0
 10
8.17451
 20
40.9507
 11
9.68983
 21
38.1275
  0
LINE
  8
0
 10
9.68983
 20
38.1275
 11
11.3493
 21
35.3316
  0
LINE
  8
0
 10
11.3493
 20
35.3316
 11
13.0751
 21
32.688
  0
LINE
  8
0
 10
13.0751
 20
32.688
 11
14.1855
 21
31.1069
  0
LINE
  8
0
 10
14.1855
 20
31.1069
 11
16.1158
 21
28.5495
  0
LINE
  8
0
 10
16.1158
 20
28.5495
 11
17.9696
 21
26.2914
  0
LINE
  8
0
 10
17.9696
 20
26.2914
 11
20.07
 21
23.9344
  0
LINE
  8
0
 10
20.07
 20
23.9344
 11
22.3013
 21
21.6348
  0
LINE
  8
0
 10
22.3013
 20
21.6348
 11
24.6287
 21
19.4326
  0
LINE
  8
0
 10
24.6287
 20
19.4326
 11
26.2198
 21
18.0308
  0
LINE
  8
0
 10
26.2198
 20
18.0308
 11
28.6976
 21
15.9993
  0
LINE
  8
0
 10
28.6976
 20
15.9993
 11
31.0306
 21
14.2407
  0
LINE
  8
0
 10
31.0306
 20
14.2407
 11
32.6102
 21
13.1283
  0
LINE
  8
0
 10
32.6102
 20
13.1283
 11
35.0121
 21
11.5495
  0
LINE
  8
0
 10
35.0121
 20
11.5495
 11
37.7588
 21
9.8994
  0
LINE
  8
0
 10
37.7588
 20
9.8994
 11
40.5734
 21
8.36813
  0
LINE
  8
0
 10
40.5734
 20
8.36813
 11
43.4508
 21
6.95848
  0
LINE
  8
0
 10
43.4508
 20
6.95848
 11
46.4294
 21
5.65506
  0
LINE
  8
0
 10
46.4294
 20
5.65506
 11
49.4174
 21
4.49802
  0
LINE
  8
0
 10
49.4174
 20
4.49802
 11
52.4071
 21
3.48384
  0
LINE
  8
0
 10
52.4071
 20
3.48384
 11
54.1662
 21
2.95174
  0
LINE
  8
0
 10
54.1662
 20
2.95174
 11
57.2626
 21
2.12762
  0
LINE
  8
0
 10
57.2626
 20
2.12762
 11
60.4376
 21
1.42735
  0
LINE
  8
0
 10
60.4376
 20
1.42735
 11
63.5933
 21
0.872498
  0
LINE
  8
0
 10
63.5933
 20
0.872498
 11
66.7231
 21
0.458115
  0
LINE
  8
0
 10
66.7231
 20
0.458115
 11
69.9615
 21
0.169434
  0
LINE
  8
0
 10
69.9615
 20
0.169434
 11
71.8907
 21
0.0644836
  0
LINE
  8
0
 10
71.8907
 20
0.0644836
 11
75.0942
 21
6.10352e-05
  0
LINE
  8
0
 10
75.0942
 20
6.10352e-05
 11
78.2976
 21
0.0725403
  0
LINE
  8
0
 10
43.5
 20
158.5
 11
43.5
 21
171.5
  0
LINE
  8
0
 10
43.5
 20
171.5
 11
56.5
 21
171.5
  0
LINE
  8
0
 10
56.5
 20
171.5
 11
56.5
 21
158.5
  0
LINE
  8
0
 10
56.5
 20
158.5
 11
43.5
 21
158.5
  0
LINE
  8
0
 10
93.5
 20
158.5
 11
93.5
 21
171.5
  0
LINE
  8
0
 10
93.5
 20
171.5
 11
106.5
 21
171.5
  0
LINE
  8
0
 10
106.5
 20
171.5
 11
106.5
 21
158.5
  0
LINE
  8
0
 10
106.5
 20
158.5
 11
93.5
 21
158.5
  0
ENDSEC
  0
SECTION
  2
OBJECTS
  0
DICTIONARY
  0
ENDSEC
  0
EOF
