  0
SECTION
  2
BLOCKS
  0
ENDSEC
  0
SECTION
  2
ENTITIES
  0
LINE
  8
0
 10
128.377
 20
0.0456238
 11
131.594
 21
0.174072
  0
LINE
  8
0
 10
131.594
 20
0.174072
 11
134.807
 21
0.385345
  0
LINE
  8
0
 10
134.807
 20
0.385345
 11
138.014
 21
0.679306
  0
LINE
  8
0
 10
138.014
 20
0.679306
 11
141.212
 21
1.05577
  0
LINE
  8
0
 10
141.212
 20
1.05577
 11
144.399
 21
1.5145
  0
LINE
  8
0
 10
144.399
 20
1.5145
 11
147.573
 21
2.05515
  0
LINE
  8
0
 10
147.573
 20
2.05515
 11
150.733
 21
2.6774
  0
LINE
  8
0
 10
150.733
 20
2.6774
 11
153.875
 21
3.38081
  0
LINE
  8
0
 10
153.875
 20
3.38081
 11
156.998
 21
4.16493
  0
LINE
  8
0
 10
156.998
 20
4.16493
 11
160.1
 21
5.02925
  0
LINE
  8
0
 10
160.1
 20
5.02925
 11
163.179
 21
5.97316
  0
LINE
  8
0
 10
163.179
 20
5.97316
 11
166.232
 21
6.99608
  0
LINE
  8
0
 10
166.232
 20
6.99608
 11
169.258
 21
8.09729
  0
LINE
  8
0
 10
169.258
 20
8.09729
 11
172.254
 21
9.27608
  0
LINE
  8
0
 10
172.254
 20
9.27608
 11
175.219
 21
10.5317
  0
LINE
  8
0
 10
175.219
 20
10.5317
 11
178.151
 21
11.8632
  0
LINE
  8
0
 10
178.151
 20
11.8632
 11
181.048
 21
13.2698
  0
LINE
  8
0
 10
181.048
 20
13.2698
 11
183.907
 21
14.7506
  0
LINE
  8
0
 10
183.907
 20
14.7506
 11
186.728
 21
16.3045
  0
LINE
  8
0
 10
186.728
 20
16.3045
 11
189.507
 21
17.9306
  0
LINE
  8
0
 10
189.507
 20
17.9306
 11
192.243
 21
19.6277
  0
LINE
  8
0
 10
192.243
 20
19.6277
 11
194.935
 21
21.3947
  0
LINE
  8
0
 10
194.935
 20
21.3947
 11
197.581
 21
23.2305
  0
LINE
  8
0
 10
197.581
 20
23.2305
 11
200.178
 21
25.1338
  0
LINE
  8
0
 10
200.178
 20
25.1338
 11
202.726
 21
27.1034
  0
LINE
  8
0
 10
202.726
 20
27.1034
 11
205.221
 21
29.138
  0
LINE
  8
0
 10
205.221
 20
29.138
 11
207.664
 21
31.2361
  0
LINE
  8
0
 10
207.664
 20
31.2361
 11
210.052
 21
33.3965
  0
LINE
  8
0
 10
210.052
 20
33.3965
 11
212.383
 21
35.6177
  0
LINE
  8
0
 10
212.383
 20
35.6177
 11
214.656
 21
37.8982
  0
LINE
  8
0
 10
214.656
 20
37.8982
 11
216.87
 21
40.2365
  0
LINE
  8
0
 10
216.87
 20
40.2365
 11
219.023
 21
42.631
  0
LINE
  8
0
 10
219.023
 20
42.631
 11
221.114
 21
45.0802
  0
LINE
  8
0
 10
221.114
 20
45.0802
 11
223.14
 21
47.5824
  0
LINE
  8
0
 10
223.14
 20
47.5824
 11
225.102
 21
50.136
  0
LINE
  8
0
 10
225.102
 20
50.136
 11
226.997
 21
52.7393
  0
LINE
  8
0
 10
226.997
 20
52.7393
 11
228.824
 21
55.3905
  0
LINE
  8
0
 10
228.824
 20
55.3905
 11
230.583
 21
58.088
  0
LINE
  8
0
 10
230.583
 20
58.088
 11
232.272
 21
60.8298
  0
LINE
  8
0
 10
232.272
 20
60.8298
 11
233.889
 21
63.6142
  0
LINE
  8
0
 10
233.889
 20
63.6142
 11
235.434
 21
66.4394
  0
LINE
  8
0
 10
235.434
 20
66.4394
 11
236.906
 21
69.3034
  0
LINE
  8
0
 10
236.906
 20
69.3034
 11
238.303
 21
72.2044
  0
LINE
  8
0
 10
238.303
 20
72.2044
 11
239.626
 21
75.1404
  0
LINE
  8
0
 10
239.626
 20
75.1404
 11
240.872
 21
78.1095
  0
LINE
  8
0
 10
240.872
 20
78.1095
 11
242.041
 21
81.1097
  0
LINE
  8
0
 10
242.041
 20
81.1097
 11
243.133
 21
84.139
  0
LINE
  8
0
 10
243.133
 20
84.139
 11
244.146
 21
87.1954
  0
LINE
  8
0
 10
244.146
 20
87.1954
 11
245.08
 21
90.277
  0
LINE
  8
0
 10
245.08
 20
90.277
 11
245.935
 21
93.3816
  0
LINE
  8
0
 10
245.935
 20
93.3816
 11
246.709
 21
96.5071
  0
LINE
  8
0
 10
246.709
 20
96.5071
 11
247.403
 21
99.6516
  0
LINE
  8
0
 10
247.403
 20
99.6516
 11
248.015
 21
102.813
  0
LINE
  8
0
 10
248.015
 20
102.813
 11
248.546
 21
105.989
  0
LINE
  8
0
 10
248.546
 20
105.989
 11
248.995
 21
109.178
  0
LINE
  8
0
 10
248.995
 20
109.178
 11
249.361
 21
112.377
  0
LINE
  8
0
 10
249.361
 20
112.377
 11
249.645
 21
115.584
  0
LINE
  8
0
 10
249.645
 20
115.584
 11
249.846
 21
118.798
  0
LINE
  8
0
 10
249.846
 20
118.798
 11
249.964
 21
122.016
  0
LINE
  8
0
 10
249.964
 20
122.016
 11
250
 21
125.236
  0
LINE
  8
0
 10
250
 20
125.236
 11
249.952
 21
128.455
  0
LINE
  8
0
 10
249.952
 20
128.455
 11
249.822
 21
131.673
  0
LINE
  8
0
 10
249.822
 20
131.673
 11
249.608
 21
134.886
  0
LINE
  8
0
 10
249.608
 20
134.886
 11
249.312
 21
138.092
  0
LINE
  8
0
 10
249.312
 20
138.092
 11
248.934
 21
141.29
  0
LINE
  8
0
 10
248.934
 20
141.29
 11
248.473
 21
144.477
  0
LINE
  8
0
 10
248.473
 20
144.477
 11
247.931
 21
147.651
  0
LINE
  8
0
 10
247.931
 20
147.651
 11
247.306
 21
150.81
  0
LINE
  8
0
 10
247.306
 20
150.81
 11
246.601
 21
153.952
  0
LINE
  8
0
 10
246.601
 20
153.952
 11
245.815
 21
157.074
  0
LINE
  8
0
 10
245.815
 20
157.074
 11
244.949
 21
160.175
  0
LINE
  8
0
 10
244.949
 20
160.175
 11
244.003
 21
163.253
  0
LINE
  8
0
 10
244.003
 20
163.253
 11
242.978
 21
166.306
  0
LINE
  8
0
 10
242.978
 20
166.306
 11
241.875
 21
169.331
  0
LINE
  8
0
 10
241.875
 20
169.331
 11
240.694
 21
172.327
  0
LINE
  8
0
 10
240.694
 20
172.327
 11
239.437
 21
175.291
  0
LINE
  8
0
 10
239.437
 20
175.291
 11
238.103
 21
178.222
  0
LINE
  8
0
 10
238.103
 20
178.222
 11
236.695
 21
181.118
  0
LINE
  8
0
 10
236.695
 20
181.118
 11
235.212
 21
183.977
  0
LINE
  8
0
 10
235.212
 20
183.977
 11
233.657
 21
186.796
  0
LINE
  8
0
 10
233.657
 20
186.796
 11
232.029
 21
189.574
  0
LINE
  8
0
 10
232.029
 20
189.574
 11
230.33
 21
192.31
  0
LINE
  8
0
 10
230.33
 20
192.31
 11
228.561
 21
195
  0
LINE
  8
0
 10
228.561
 20
195
 11
226.724
 21
197.645
  0
LINE
  8
0
 10
226.724
 20
197.645
 11
224.819
 21
200.241
  0
LINE
  8
0
 10
224.819
 20
200.241
 11
222.848
 21
202.787
  0
LINE
  8
0
 10
222.848
 20
202.787
 11
220.812
 21
205.282
  0
LINE
  8
0
 10
220.812
 20
205.282
 11
218.712
 21
207.723
  0
LINE
  8
0
 10
218.712
 20
207.723
 11
216.55
 21
210.109
  0
LINE
  8
0
 10
216.55
 20
210.109
 11
214.327
 21
212.439
  0
LINE
  8
0
 10
214.327
 20
212.439
 11
212.045
 21
214.711
  0
LINE
  8
0
 10
212.045
 20
214.711
 11
209.706
 21
216.923
  0
LINE
  8
0
 10
209.706
 20
216.923
 11
207.31
 21
219.075
  0
LINE
  8
0
 10
207.31
 20
219.075
 11
204.859
 21
221.164
  0
LINE
  8
0
 10
204.859
 20
221.164
 11
202.356
 21
223.189
  0
LINE
  8
0
 10
202.356
 20
223.189
 11
199.801
 21
225.149
  0
LINE
  8
0
 10
199.801
 20
225.149
 11
197.197
 21
227.042
  0
LINE
  8
0
 10
197.197
 20
227.042
 11
194.544
 21
228.868
  0
LINE
  8
0
 10
194.544
 20
228.868
 11
191.912
 21
230.583
  0
LINE
  8
0
 10
191.912
 20
230.583
 11
189.17
 21
232.272
  0
LINE
  8
0
 10
189.17
 20
232.272
 11
186.386
 21
233.889
  0
LINE
  8
0
 10
186.386
 20
233.889
 11
183.561
 21
235.434
  0
LINE
  8
0
 10
183.561
 20
235.434
 11
180.697
 21
236.906
  0
LINE
  8
0
 10
180.697
 20
236.906
 11
177.796
 21
238.303
  0
LINE
  8
0
 10
177.796
 20
238.303
 11
174.86
 21
239.626
  0
LINE
  8
0
 10
174.86
 20
239.626
 11
171.891
 21
240.872
  0
LINE
  8
0
 10
171.891
 20
240.872
 11
169.5
 21
241.811
  0
LINE
  8
0
 10
169.5
 20
241.811
 11
169.488
 21
272.047
  0
LINE
  8
0
 10
169.488
 20
272.047
 11
169.4
 21
273.113
  0
LINE
  8
0
 10
169.4
 20
273.113
 11
169.204
 21
274.256
  0
LINE
  8
0
 10
169.204
 20
274.256
 11
168.886
 21
275.447
  0
LINE
  8
0
 10
168.886
 20
275.447
 11
168.575
 21
276.316
  0
LINE
  8
0
 10
168.575
 20
276.316
 11
168.116
 21
277.336
  0
LINE
  8
0
 10
168.116
 20
277.336
 11
167.606
 21
278.258
  0
LINE
  8
0
 10
167.606
 20
278.258
 11
167.122
 21
278.995
  0
LINE
  8
0
 10
167.122
 20
278.995
 11
166.491
 21
279.818
  0
LINE
  8
0
 10
166.491
 20
279.818
 11
165.909
 21
280.47
  0
LINE
  8
0
 10
165.909
 20
280.47
 11
164.961
 21
281.369
  0
LINE
  8
0
 10
164.961
 20
281.369
 11
164.088
 21
282.055
  0
LINE
  8
0
 10
164.088
 20
282.055
 11
163.292
 21
282.584
  0
LINE
  8
0
 10
163.292
 20
282.584
 11
162.561
 21
283
  0
LINE
  8
0
 10
162.561
 20
283
 11
161.52
 21
283.492
  0
LINE
  8
0
 10
161.52
 20
283.492
 11
160.525
 21
283.861
  0
LINE
  8
0
 10
160.525
 20
283.861
 11
159.503
 21
284.148
  0
LINE
  8
0
 10
159.503
 20
284.148
 11
158.63
 21
284.324
  0
LINE
  8
0
 10
158.63
 20
284.324
 11
157.78
 21
284.437
  0
LINE
  8
0
 10
157.78
 20
284.437
 11
156.606
 21
284.5
  0
LINE
  8
0
 10
156.606
 20
284.5
 11
92.9529
 21
284.488
  0
LINE
  8
0
 10
92.9529
 20
284.488
 11
91.8869
 21
284.4
  0
LINE
  8
0
 10
91.8869
 20
284.4
 11
90.7439
 21
284.204
  0
LINE
  8
0
 10
90.7439
 20
284.204
 11
89.5528
 21
283.886
  0
LINE
  8
0
 10
89.5528
 20
283.886
 11
88.684
 21
283.575
  0
LINE
  8
0
 10
88.684
 20
283.575
 11
87.6637
 21
283.116
  0
LINE
  8
0
 10
87.6637
 20
283.116
 11
86.7424
 21
282.606
  0
LINE
  8
0
 10
86.7424
 20
282.606
 11
86.0049
 21
282.122
  0
LINE
  8
0
 10
86.0049
 20
282.122
 11
85.1821
 21
281.491
  0
LINE
  8
0
 10
85.1821
 20
281.491
 11
84.5297
 21
280.909
  0
LINE
  8
0
 10
84.5297
 20
280.909
 11
83.6307
 21
279.961
  0
LINE
  8
0
 10
83.6307
 20
279.961
 11
82.9445
 21
279.088
  0
LINE
  8
0
 10
82.9445
 20
279.088
 11
82.4157
 21
278.292
  0
LINE
  8
0
 10
82.4157
 20
278.292
 11
81.9996
 21
277.561
  0
LINE
  8
0
 10
81.9996
 20
277.561
 11
81.5084
 21
276.52
  0
LINE
  8
0
 10
81.5084
 20
276.52
 11
81.1388
 21
275.525
  0
LINE
  8
0
 10
81.1388
 20
275.525
 11
80.8516
 21
274.503
  0
LINE
  8
0
 10
80.8516
 20
274.503
 11
80.6758
 21
273.63
  0
LINE
  8
0
 10
80.6758
 20
273.63
 11
80.5632
 21
272.78
  0
LINE
  8
0
 10
80.5632
 20
272.78
 11
80.5004
 21
271.606
  0
LINE
  8
0
 10
80.5004
 20
271.606
 11
80.5
 21
241.811
  0
LINE
  8
0
 10
80.5
 20
241.811
 11
77.455
 21
240.605
  0
LINE
  8
0
 10
77.455
 20
240.605
 11
74.493
 21
239.342
  0
LINE
  8
0
 10
74.493
 20
239.342
 11
71.5645
 21
238.003
  0
LINE
  8
0
 10
71.5645
 20
238.003
 11
68.6715
 21
236.589
  0
LINE
  8
0
 10
68.6715
 20
236.589
 11
65.8158
 21
235.101
  0
LINE
  8
0
 10
65.8158
 20
235.101
 11
62.9995
 21
233.54
  0
LINE
  8
0
 10
62.9995
 20
233.54
 11
60.2242
 21
231.907
  0
LINE
  8
0
 10
60.2242
 20
231.907
 11
57.492
 21
230.203
  0
LINE
  8
0
 10
57.492
 20
230.203
 11
54.8696
 21
228.473
  0
LINE
  8
0
 10
54.8696
 20
228.473
 11
52.2275
 21
226.633
  0
LINE
  8
0
 10
52.2275
 20
226.633
 11
49.6338
 21
224.724
  0
LINE
  8
0
 10
49.6338
 20
224.724
 11
47.0901
 21
222.75
  0
LINE
  8
0
 10
47.0901
 20
222.75
 11
44.5981
 21
220.711
  0
LINE
  8
0
 10
44.5981
 20
220.711
 11
42.1594
 21
218.608
  0
LINE
  8
0
 10
42.1594
 20
218.608
 11
39.7757
 21
216.443
  0
LINE
  8
0
 10
39.7757
 20
216.443
 11
37.4486
 21
214.217
  0
LINE
  8
0
 10
37.4486
 20
214.217
 11
35.1796
 21
211.933
  0
LINE
  8
0
 10
35.1796
 20
211.933
 11
32.9702
 21
209.59
  0
LINE
  8
0
 10
32.9702
 20
209.59
 11
30.8218
 21
207.192
  0
LINE
  8
0
 10
30.8218
 20
207.192
 11
28.7359
 21
204.738
  0
LINE
  8
0
 10
28.7359
 20
204.738
 11
26.7625
 21
202.294
  0
LINE
  8
0
 10
26.7625
 20
202.294
 11
24.8041
 21
199.738
  0
LINE
  8
0
 10
24.8041
 20
199.738
 11
22.9123
 21
197.132
  0
LINE
  8
0
 10
22.9123
 20
197.132
 11
21.0881
 21
194.479
  0
LINE
  8
0
 10
21.0881
 20
194.479
 11
19.3329
 21
191.779
  0
LINE
  8
0
 10
19.3329
 20
191.779
 11
17.6479
 21
189.035
  0
LINE
  8
0
 10
17.6479
 20
189.035
 11
16.0341
 21
186.249
  0
LINE
  8
0
 10
16.0341
 20
186.249
 11
14.4926
 21
183.422
  0
LINE
  8
0
 10
14.4926
 20
183.422
 11
13.0244
 21
180.556
  0
LINE
  8
0
 10
13.0244
 20
180.556
 11
11.6305
 21
177.653
  0
LINE
  8
0
 10
11.6305
 20
177.653
 11
10.3119
 21
174.716
  0
LINE
  8
0
 10
10.3119
 20
174.716
 11
9.06937
 21
171.745
  0
LINE
  8
0
 10
9.06937
 20
171.745
 11
7.90376
 21
168.743
  0
LINE
  8
0
 10
7.90376
 20
168.743
 11
6.81587
 21
165.713
  0
LINE
  8
0
 10
6.81587
 20
165.713
 11
5.8064
 21
162.655
  0
LINE
  8
0
 10
5.8064
 20
162.655
 11
4.87602
 21
159.572
  0
LINE
  8
0
 10
4.87602
 20
159.572
 11
4.02538
 21
156.466
  0
LINE
  8
0
 10
4.02538
 20
156.466
 11
3.25499
 21
153.34
  0
LINE
  8
0
 10
3.25499
 20
153.34
 11
2.5654
 21
150.195
  0
LINE
  8
0
 10
2.5654
 20
150.195
 11
1.95706
 21
147.033
  0
LINE
  8
0
 10
1.95706
 20
147.033
 11
1.43036
 21
143.856
  0
LINE
  8
0
 10
1.43036
 20
143.856
 11
0.985672
 21
140.667
  0
LINE
  8
0
 10
0.985672
 20
140.667
 11
0.623276
 21
137.467
  0
LINE
  8
0
 10
0.623276
 20
137.467
 11
0.343414
 21
134.259
  0
LINE
  8
0
 10
0.343414
 20
134.259
 11
0.146271
 21
131.045
  0
LINE
  8
0
 10
0.146271
 20
131.045
 11
0.0319824
 21
127.827
  0
LINE
  8
0
 10
0.0319824
 20
127.827
 11
0.00062561
 21
124.607
  0
LINE
  8
0
 10
0.00062561
 20
124.607
 11
0.0522156
 21
121.388
  0
LINE
  8
0
 10
0.0522156
 20
121.388
 11
0.186722
 21
118.17
  0
LINE
  8
0
 10
0.186722
 20
118.17
 11
0.404053
 21
114.958
  0
LINE
  8
0
 10
0.404053
 20
114.958
 11
0.704056
 21
111.752
  0
LINE
  8
0
 10
0.704056
 20
111.752
 11
1.08655
 21
108.554
  0
LINE
  8
0
 10
1.08655
 20
108.554
 11
1.55127
 21
105.368
  0
LINE
  8
0
 10
1.55127
 20
105.368
 11
2.09792
 21
102.195
  0
LINE
  8
0
 10
2.09792
 20
102.195
 11
2.72612
 21
99.0367
  0
LINE
  8
0
 10
2.72612
 20
99.0367
 11
3.43546
 21
95.8957
  0
LINE
  8
0
 10
3.43546
 20
95.8957
 11
4.22546
 21
92.7741
  0
LINE
  8
0
 10
4.22546
 20
92.7741
 11
5.09563
 21
89.6738
  0
LINE
  8
0
 10
5.09563
 20
89.6738
 11
6.04535
 21
86.597
  0
LINE
  8
0
 10
6.04535
 20
86.597
 11
7.07401
 21
83.5457
  0
LINE
  8
0
 10
7.07401
 20
83.5457
 11
8.18092
 21
80.5219
  0
LINE
  8
0
 10
8.18092
 20
80.5219
 11
9.36536
 21
77.5276
  0
LINE
  8
0
 10
9.36536
 20
77.5276
 11
10.6265
 21
74.5648
  0
LINE
  8
0
 10
10.6265
 20
74.5648
 11
11.9636
 21
71.6355
  0
LINE
  8
0
 10
11.9636
 20
71.6355
 11
13.3757
 21
68.7416
  0
LINE
  8
0
 10
13.3757
 20
68.7416
 11
14.899
 21
65.8158
  0
LINE
  8
0
 10
14.899
 20
65.8158
 11
16.46
 21
62.9995
  0
LINE
  8
0
 10
16.46
 20
62.9995
 11
18.093
 21
60.2242
  0
LINE
  8
0
 10
18.093
 20
60.2242
 11
19.797
 21
57.492
  0
LINE
  8
0
 10
19.797
 20
57.492
 11
21.5267
 21
54.8696
  0
LINE
  8
0
 10
21.5267
 20
54.8696
 11
23.3675
 21
52.2275
  0
LINE
  8
0
 10
23.3675
 20
52.2275
 11
25.2757
 21
49.6338
  0
LINE
  8
0
 10
25.2757
 20
49.6338
 11
27.2501
 21
47.0901
  0
LINE
  8
0
 10
27.2501
 20
47.0901
 11
29.2893
 21
44.5981
  0
LINE
  8
0
 10
29.2893
 20
44.5981
 11
31.3921
 21
42.1594
  0
LINE
  8
0
 10
31.3921
 20
42.1594
 11
33.557
 21
39.7757
  0
LINE
  8
0
 10
33.557
 20
39.7757
 11
35.7826
 21
37.4486
  0
LINE
  8
0
 10
35.7826
 20
37.4486
 11
38.0673
 21
35.1796
  0
LINE
  8
0
 10
38.0673
 20
35.1796
 11
40.4098
 21
32.9702
  0
LINE
  8
0
 10
40.4098
 20
32.9702
 11
42.8084
 21
30.8218
  0
LINE
  8
0
 10
42.8084
 20
30.8218
 11
45.2615
 21
28.7359
  0
LINE
  8
0
 10
45.2615
 20
28.7359
 11
47.7058
 21
26.7625
  0
LINE
  8
0
 10
47.7058
 20
26.7625
 11
50.2619
 21
24.8041
  0
LINE
  8
0
 10
50.2619
 20
24.8041
 11
52.8676
 21
22.9123
  0
LINE
  8
0
 10
52.8676
 20
22.9123
 11
55.5211
 21
21.0881
  0
LINE
  8
0
 10
55.5211
 20
21.0881
 11
58.2207
 21
19.3329
  0
LINE
  8
0
 10
58.2207
 20
19.3329
 11
60.9647
 21
17.6479
  0
LINE
  8
0
 10
60.9647
 20
17.6479
 11
63.7511
 21
16.0341
  0
LINE
  8
0
 10
63.7511
 20
16.0341
 11
66.5782
 21
14.4926
  0
LINE
  8
0
 10
66.5782
 20
14.4926
 11
69.4441
 21
13.0244
  0
LINE
  8
0
 10
69.4441
 20
13.0244
 11
72.3468
 21
11.6305
  0
LINE
  8
0
 10
72.3468
 20
11.6305
 11
75.2845
 21
10.3119
  0
LINE
  8
0
 10
75.2845
 20
10.3119
 11
78.2551
 21
9.06937
  0
LINE
  8
0
 10
78.2551
 20
9.06937
 11
81.2568
 21
7.90376
  0
LINE
  8
0
 10
81.2568
 20
7.90376
 11
84.2875
 21
6.81587
  0
LINE
  8
0
 10
84.2875
 20
6.81587
 11
87.3452
 21
5.8064
  0
LINE
  8
0
 10
87.3452
 20
5.8064
 11
90.4279
 21
4.87602
  0
LINE
  8
0
 10
90.4279
 20
4.87602
 11
93.5336
 21
4.02538
  0
LINE
  8
0
 10
93.5336
 20
4.02538
 11
96.6601
 21
3.25499
  0
LINE
  8
0
 10
96.6601
 20
3.25499
 11
99.8054
 21
2.5654
  0
LINE
  8
0
 10
99.8054
 20
2.5654
 11
102.967
 21
1.95706
  0
LINE
  8
0
 10
102.967
 20
1.95706
 11
106.144
 21
1.43036
  0
LINE
  8
0
 10
106.144
 20
1.43036
 11
109.333
 21
0.985672
  0
LINE
  8
0
 10
109.333
 20
0.985672
 11
112.533
 21
0.623276
  0
LINE
  8
0
 10
112.533
 20
0.623276
 11
115.741
 21
0.343414
  0
LINE
  8
0
 10
115.741
 20
0.343414
 11
118.955
 21
0.146271
  0
LINE
  8
0
 10
118.955
 20
0.146271
 11
121.937
 21
0.0375366
  0
LINE
  8
0
 10
121.937
 20
0.0375366
 11
125.157
 21
0.000106812
  0
LINE
  8
0
 10
125.157
 20
0.000106812
 11
128.377
 21
0.0456238
  0
LINE
  8
0
 10
93.5
 20
258.5
 11
93.5
 21
271.5
  0
LINE
  8
0
 10
93.5
 20
271.5
 11
106.5
 21
271.5
  0
LINE
  8
0
 10
106.5
 20
271.5
 11
106.5
 21
258.5
  0
LINE
  8
0
 10
106.5
 20
258.5
 11
93.5
 21
258.5
  0
LINE
  8
0
 10
143.5
 20
258.5
 11
143.5
 21
271.5
  0
LINE
  8
0
 10
143.5
 20
271.5
 11
156.5
 21
271.5
  0
LINE
  8
0
 10
156.5
 20
271.5
 11
156.5
 21
258.5
  0
LINE
  8
0
 10
156.5
 20
258.5
 11
143.5
 21
258.5
  0
ENDSEC
  0
SECTION
  2
OBJECTS
  0
DICTIONARY
  0
ENDSEC
  0
EOF
