  0
SECTION
  2
BLOCKS
  0
ENDSEC
  0
SECTION
  2
ENTITIES
  0
LINE
  8
0
 10
178.408
 20
0.0332031
 11
181.596
 21
0.124344
  0
LINE
  8
0
 10
181.596
 20
0.124344
 11
184.781
 21
0.27356
  0
LINE
  8
0
 10
184.781
 20
0.27356
 11
187.963
 21
0.480774
  0
LINE
  8
0
 10
187.963
 20
0.480774
 11
191.141
 21
0.745926
  0
LINE
  8
0
 10
191.141
 20
0.745926
 11
194.313
 21
1.06894
  0
LINE
  8
0
 10
194.313
 20
1.06894
 11
197.479
 21
1.44969
  0
LINE
  8
0
 10
197.479
 20
1.44969
 11
200.637
 21
1.88808
  0
LINE
  8
0
 10
200.637
 20
1.88808
 11
203.895
 21
2.40204
  0
LINE
  8
0
 10
203.895
 20
2.40204
 11
207.143
 21
2.97734
  0
LINE
  8
0
 10
207.143
 20
2.97734
 11
210.272
 21
3.59155
  0
LINE
  8
0
 10
210.272
 20
3.59155
 11
213.39
 21
4.26268
  0
LINE
  8
0
 10
213.39
 20
4.26268
 11
216.494
 21
4.99049
  0
LINE
  8
0
 10
216.494
 20
4.99049
 11
219.691
 21
5.8028
  0
LINE
  8
0
 10
219.691
 20
5.8028
 11
222.767
 21
6.64517
  0
LINE
  8
0
 10
222.767
 20
6.64517
 11
225.826
 21
7.54343
  0
LINE
  8
0
 10
225.826
 20
7.54343
 11
228.973
 21
8.53117
  0
LINE
  8
0
 10
228.973
 20
8.53117
 11
231.998
 21
9.54222
  0
LINE
  8
0
 10
231.998
 20
9.54222
 11
235.003
 21
10.6082
  0
LINE
  8
0
 10
235.003
 20
10.6082
 11
237.988
 21
11.7287
  0
LINE
  8
0
 10
237.988
 20
11.7287
 11
240.952
 21
12.9035
  0
LINE
  8
0
 10
240.952
 20
12.9035
 11
243.895
 21
14.1321
  0
LINE
  8
0
 10
243.895
 20
14.1321
 11
246.915
 21
15.4592
  0
LINE
  8
0
 10
246.915
 20
15.4592
 11
249.81
 21
16.796
  0
LINE
  8
0
 10
249.81
 20
16.796
 11
252.68
 21
18.1853
  0
LINE
  8
0
 10
252.68
 20
18.1853
 11
255.524
 21
19.6267
  0
LINE
  8
0
 10
255.524
 20
19.6267
 11
258.438
 21
21.172
  0
LINE
  8
0
 10
258.438
 20
21.172
 11
261.227
 21
22.7178
  0
LINE
  8
0
 10
261.227
 20
22.7178
 11
264.082
 21
24.3701
  0
LINE
  8
0
 10
264.082
 20
24.3701
 11
266.812
 21
26.0182
  0
LINE
  8
0
 10
266.812
 20
26.0182
 11
269.511
 21
27.7158
  0
LINE
  8
0
 10
269.511
 20
27.7158
 11
272.27
 21
29.5234
  0
LINE
  8
0
 10
272.27
 20
29.5234
 11
274.995
 21
31.3826
  0
LINE
  8
0
 10
274.995
 20
31.3826
 11
277.595
 21
33.2284
  0
LINE
  8
0
 10
277.595
 20
33.2284
 11
280.249
 21
35.1873
  0
LINE
  8
0
 10
280.249
 20
35.1873
 11
282.779
 21
37.1282
  0
LINE
  8
0
 10
282.779
 20
37.1282
 11
285.273
 21
39.1149
  0
LINE
  8
0
 10
285.273
 20
39.1149
 11
287.815
 21
41.2175
  0
LINE
  8
0
 10
287.815
 20
41.2175
 11
290.234
 21
43.2952
  0
LINE
  8
0
 10
290.234
 20
43.2952
 11
292.696
 21
45.4906
  0
LINE
  8
0
 10
292.696
 20
45.4906
 11
295.116
 21
47.732
  0
LINE
  8
0
 10
295.116
 20
47.732
 11
297.493
 21
50.0186
  0
LINE
  8
0
 10
297.493
 20
50.0186
 11
299.827
 21
52.3496
  0
LINE
  8
0
 10
299.827
 20
52.3496
 11
302.041
 21
54.6443
  0
LINE
  8
0
 10
302.041
 20
54.6443
 11
304.213
 21
56.979
  0
LINE
  8
0
 10
304.213
 20
56.979
 11
306.342
 21
59.3529
  0
LINE
  8
0
 10
306.342
 20
59.3529
 11
308.427
 21
61.7652
  0
LINE
  8
0
 10
308.427
 20
61.7652
 11
310.468
 21
64.2151
  0
LINE
  8
0
 10
310.468
 20
64.2151
 11
312.533
 21
66.7881
  0
LINE
  8
0
 10
312.533
 20
66.7881
 11
314.481
 21
69.312
  0
LINE
  8
0
 10
314.481
 20
69.312
 11
316.449
 21
71.9598
  0
LINE
  8
0
 10
316.449
 20
71.9598
 11
318.303
 21
74.5541
  0
LINE
  8
0
 10
318.303
 20
74.5541
 11
320.109
 21
77.1818
  0
LINE
  8
0
 10
320.109
 20
77.1818
 11
321.927
 21
79.9342
  0
LINE
  8
0
 10
321.927
 20
79.9342
 11
323.635
 21
82.627
  0
LINE
  8
0
 10
323.635
 20
82.627
 11
325.349
 21
85.445
  0
LINE
  8
0
 10
325.349
 20
85.445
 11
327.011
 21
88.2947
  0
LINE
  8
0
 10
327.011
 20
88.2947
 11
328.565
 21
91.0788
  0
LINE
  8
0
 10
328.565
 20
91.0788
 11
330.069
 21
93.8907
  0
LINE
  8
0
 10
330.069
 20
93.8907
 11
331.521
 21
96.7296
  0
LINE
  8
0
 10
331.521
 20
96.7296
 11
332.921
 21
99.5944
  0
LINE
  8
0
 10
332.921
 20
99.5944
 11
334.314
 21
102.584
  0
LINE
  8
0
 10
334.314
 20
102.584
 11
335.651
 21
105.6
  0
LINE
  8
0
 10
335.651
 20
105.6
 11
336.93
 21
108.64
  0
LINE
  8
0
 10
336.93
 20
108.64
 11
338.112
 21
111.602
  0
LINE
  8
0
 10
338.112
 20
111.602
 11
339.24
 21
114.584
  0
LINE
  8
0
 10
339.24
 20
114.584
 11
340.314
 21
117.587
  0
LINE
  8
0
 10
340.314
 20
117.587
 11
341.333
 21
120.608
  0
LINE
  8
0
 10
341.333
 20
120.608
 11
342.328
 21
123.753
  0
LINE
  8
0
 10
342.328
 20
123.753
 11
343.234
 21
126.81
  0
LINE
  8
0
 10
343.234
 20
126.81
 11
344.113
 21
129.99
  0
LINE
  8
0
 10
344.113
 20
129.99
 11
344.905
 21
133.079
  0
LINE
  8
0
 10
344.905
 20
133.079
 11
345.665
 21
136.289
  0
LINE
  8
0
 10
345.665
 20
136.289
 11
346.342
 21
139.405
  0
LINE
  8
0
 10
346.342
 20
139.405
 11
346.982
 21
142.64
  0
LINE
  8
0
 10
346.982
 20
142.64
 11
347.543
 21
145.779
  0
LINE
  8
0
 10
347.543
 20
145.779
 11
348.047
 21
148.928
  0
LINE
  8
0
 10
348.047
 20
148.928
 11
348.508
 21
152.194
  0
LINE
  8
0
 10
348.508
 20
152.194
 11
348.894
 21
155.359
  0
LINE
  8
0
 10
348.894
 20
155.359
 11
349.223
 21
158.531
  0
LINE
  8
0
 10
349.223
 20
158.531
 11
349.494
 21
161.708
  0
LINE
  8
0
 10
349.494
 20
161.708
 11
349.708
 21
164.89
  0
LINE
  8
0
 10
349.708
 20
164.89
 11
349.863
 21
168.075
  0
LINE
  8
0
 10
349.863
 20
168.075
 11
349.96
 21
171.262
  0
LINE
  8
0
 10
349.96
 20
171.262
 11
349.999
 21
174.45
  0
LINE
  8
0
 10
349.999
 20
174.45
 11
349.98
 21
177.639
  0
LINE
  8
0
 10
349.98
 20
177.639
 11
349.899
 21
180.936
  0
LINE
  8
0
 10
349.899
 20
180.936
 11
349.762
 21
184.122
  0
LINE
  8
0
 10
349.762
 20
184.122
 11
349.559
 21
187.415
  0
LINE
  8
0
 10
349.559
 20
187.415
 11
349.294
 21
190.703
  0
LINE
  8
0
 10
349.294
 20
190.703
 11
348.979
 21
193.876
  0
LINE
  8
0
 10
348.979
 20
193.876
 11
348.606
 21
197.042
  0
LINE
  8
0
 10
348.606
 20
197.042
 11
348.176
 21
200.202
  0
LINE
  8
0
 10
348.176
 20
200.202
 11
347.688
 21
203.353
  0
LINE
  8
0
 10
347.688
 20
203.353
 11
347.143
 21
206.495
  0
LINE
  8
0
 10
347.143
 20
206.495
 11
346.54
 21
209.626
  0
LINE
  8
0
 10
346.54
 20
209.626
 11
345.857
 21
212.853
  0
LINE
  8
0
 10
345.857
 20
212.853
 11
345.139
 21
215.96
  0
LINE
  8
0
 10
345.139
 20
215.96
 11
344.337
 21
219.159
  0
LINE
  8
0
 10
344.337
 20
219.159
 11
343.504
 21
222.237
  0
LINE
  8
0
 10
343.504
 20
222.237
 11
342.584
 21
225.405
  0
LINE
  8
0
 10
342.584
 20
225.405
 11
341.638
 21
228.45
  0
LINE
  8
0
 10
341.638
 20
228.45
 11
340.636
 21
231.477
  0
LINE
  8
0
 10
340.636
 20
231.477
 11
339.542
 21
234.589
  0
LINE
  8
0
 10
339.542
 20
234.589
 11
338.429
 21
237.577
  0
LINE
  8
0
 10
338.429
 20
237.577
 11
337.221
 21
240.647
  0
LINE
  8
0
 10
337.221
 20
240.647
 11
335.954
 21
243.693
  0
LINE
  8
0
 10
335.954
 20
243.693
 11
334.676
 21
246.614
  0
LINE
  8
0
 10
334.676
 20
246.614
 11
333.345
 21
249.511
  0
LINE
  8
0
 10
333.345
 20
249.511
 11
331.961
 21
252.384
  0
LINE
  8
0
 10
331.961
 20
252.384
 11
330.474
 21
255.329
  0
LINE
  8
0
 10
330.474
 20
255.329
 11
328.985
 21
258.148
  0
LINE
  8
0
 10
328.985
 20
258.148
 11
327.444
 21
260.94
  0
LINE
  8
0
 10
327.444
 20
260.94
 11
325.798
 21
263.798
  0
LINE
  8
0
 10
325.798
 20
263.798
 11
324.097
 21
266.625
  0
LINE
  8
0
 10
324.097
 20
266.625
 11
322.403
 21
269.326
  0
LINE
  8
0
 10
322.403
 20
269.326
 11
320.599
 21
272.088
  0
LINE
  8
0
 10
320.599
 20
272.088
 11
318.806
 21
274.724
  0
LINE
  8
0
 10
318.806
 20
274.724
 11
316.9
 21
277.417
  0
LINE
  8
0
 10
316.9
 20
277.417
 11
315.011
 21
279.986
  0
LINE
  8
0
 10
315.011
 20
279.986
 11
313.075
 21
282.519
  0
LINE
  8
0
 10
313.075
 20
282.519
 11
311.093
 21
285.017
  0
LINE
  8
0
 10
311.093
 20
285.017
 11
309.066
 21
287.478
  0
LINE
  8
0
 10
309.066
 20
287.478
 11
306.922
 21
289.985
  0
LINE
  8
0
 10
306.922
 20
289.985
 11
304.805
 21
292.37
  0
LINE
  8
0
 10
304.805
 20
292.37
 11
302.645
 21
294.716
  0
LINE
  8
0
 10
302.645
 20
294.716
 11
300.442
 21
297.021
  0
LINE
  8
0
 10
300.442
 20
297.021
 11
298.12
 21
299.364
  0
LINE
  8
0
 10
298.12
 20
299.364
 11
295.834
 21
301.587
  0
LINE
  8
0
 10
295.834
 20
301.587
 11
293.507
 21
303.767
  0
LINE
  8
0
 10
293.507
 20
303.767
 11
291.141
 21
305.905
  0
LINE
  8
0
 10
291.141
 20
305.905
 11
288.737
 21
308
  0
LINE
  8
0
 10
288.737
 20
308
 11
286.295
 21
310.05
  0
LINE
  8
0
 10
286.295
 20
310.05
 11
283.816
 21
312.055
  0
LINE
  8
0
 10
283.816
 20
312.055
 11
281.3
 21
314.015
  0
LINE
  8
0
 10
281.3
 20
314.015
 11
278.75
 21
315.929
  0
LINE
  8
0
 10
278.75
 20
315.929
 11
276.165
 21
317.796
  0
LINE
  8
0
 10
276.165
 20
317.796
 11
273.546
 21
319.615
  0
LINE
  8
0
 10
273.546
 20
319.615
 11
270.803
 21
321.447
  0
LINE
  8
0
 10
270.803
 20
321.447
 11
268.026
 21
323.227
  0
LINE
  8
0
 10
268.026
 20
323.227
 11
265.31
 21
324.897
  0
LINE
  8
0
 10
265.31
 20
324.897
 11
262.563
 21
326.518
  0
LINE
  8
0
 10
262.563
 20
326.518
 11
259.692
 21
328.141
  0
LINE
  8
0
 10
259.692
 20
328.141
 11
256.888
 21
329.659
  0
LINE
  8
0
 10
256.888
 20
329.659
 11
254.056
 21
331.125
  0
LINE
  8
0
 10
254.056
 20
331.125
 11
251.198
 21
332.54
  0
LINE
  8
0
 10
251.198
 20
332.54
 11
248.216
 21
333.948
  0
LINE
  8
0
 10
248.216
 20
333.948
 11
245.307
 21
335.256
  0
LINE
  8
0
 10
245.307
 20
335.256
 11
242.376
 21
336.51
  0
LINE
  8
0
 10
242.376
 20
336.51
 11
239.32
 21
337.751
  0
LINE
  8
0
 10
239.32
 20
337.751
 11
236.344
 21
338.896
  0
LINE
  8
0
 10
236.344
 20
338.896
 11
233.347
 21
339.987
  0
LINE
  8
0
 10
233.347
 20
339.987
 11
230.331
 21
341.022
  0
LINE
  8
0
 10
230.331
 20
341.022
 11
227.297
 21
342.003
  0
LINE
  8
0
 10
227.297
 20
342.003
 11
224.14
 21
342.959
  0
LINE
  8
0
 10
224.14
 20
342.959
 11
220.966
 21
343.855
  0
LINE
  8
0
 10
220.966
 20
343.855
 11
219.5
 21
344.248
  0
LINE
  8
0
 10
219.5
 20
344.248
 11
219.488
 21
372.047
  0
LINE
  8
0
 10
219.488
 20
372.047
 11
219.4
 21
373.113
  0
LINE
  8
0
 10
219.4
 20
373.113
 11
219.204
 21
374.256
  0
LINE
  8
0
 10
219.204
 20
374.256
 11
218.886
 21
375.447
  0
LINE
  8
0
 10
218.886
 20
375.447
 11
218.575
 21
376.316
  0
LINE
  8
0
 10
218.575
 20
376.316
 11
218.116
 21
377.336
  0
LINE
  8
0
 10
218.116
 20
377.336
 11
217.606
 21
378.258
  0
LINE
  8
0
 10
217.606
 20
378.258
 11
217.122
 21
378.995
  0
LINE
  8
0
 10
217.122
 20
378.995
 11
216.491
 21
379.818
  0
LINE
  8
0
 10
216.491
 20
379.818
 11
215.909
 21
380.47
  0
LINE
  8
0
 10
215.909
 20
380.47
 11
214.961
 21
381.369
  0
LINE
  8
0
 10
214.961
 20
381.369
 11
214.088
 21
382.055
  0
LINE
  8
0
 10
214.088
 20
382.055
 11
213.292
 21
382.584
  0
LINE
  8
0
 10
213.292
 20
382.584
 11
212.561
 21
383
  0
LINE
  8
0
 10
212.561
 20
383
 11
211.52
 21
383.492
  0
LINE
  8
0
 10
211.52
 20
383.492
 11
210.525
 21
383.861
  0
LINE
  8
0
 10
210.525
 20
383.861
 11
209.503
 21
384.148
  0
LINE
  8
0
 10
209.503
 20
384.148
 11
208.63
 21
384.324
  0
LINE
  8
0
 10
208.63
 20
384.324
 11
207.78
 21
384.437
  0
LINE
  8
0
 10
207.78
 20
384.437
 11
206.606
 21
384.5
  0
LINE
  8
0
 10
206.606
 20
384.5
 11
142.953
 21
384.488
  0
LINE
  8
0
 10
142.953
 20
384.488
 11
141.887
 21
384.4
  0
LINE
  8
0
 10
141.887
 20
384.4
 11
140.744
 21
384.204
  0
LINE
  8
0
 10
140.744
 20
384.204
 11
139.553
 21
383.886
  0
LINE
  8
0
 10
139.553
 20
383.886
 11
138.684
 21
383.575
  0
LINE
  8
0
 10
138.684
 20
383.575
 11
137.664
 21
383.116
  0
LINE
  8
0
 10
137.664
 20
383.116
 11
136.742
 21
382.606
  0
LINE
  8
0
 10
136.742
 20
382.606
 11
136.005
 21
382.122
  0
LINE
  8
0
 10
136.005
 20
382.122
 11
135.182
 21
381.491
  0
LINE
  8
0
 10
135.182
 20
381.491
 11
134.53
 21
380.909
  0
LINE
  8
0
 10
134.53
 20
380.909
 11
133.631
 21
379.961
  0
LINE
  8
0
 10
133.631
 20
379.961
 11
132.945
 21
379.088
  0
LINE
  8
0
 10
132.945
 20
379.088
 11
132.416
 21
378.292
  0
LINE
  8
0
 10
132.416
 20
378.292
 11
132
 21
377.561
  0
LINE
  8
0
 10
132
 20
377.561
 11
131.508
 21
376.52
  0
LINE
  8
0
 10
131.508
 20
376.52
 11
131.139
 21
375.525
  0
LINE
  8
0
 10
131.139
 20
375.525
 11
130.852
 21
374.503
  0
LINE
  8
0
 10
130.852
 20
374.503
 11
130.676
 21
373.63
  0
LINE
  8
0
 10
130.676
 20
373.63
 11
130.563
 21
372.78
  0
LINE
  8
0
 10
130.563
 20
372.78
 11
130.5
 21
371.606
  0
LINE
  8
0
 10
130.5
 20
371.606
 11
130.5
 21
344.248
  0
LINE
  8
0
 10
130.5
 20
344.248
 11
127.445
 21
343.415
  0
LINE
  8
0
 10
127.445
 20
343.415
 11
124.384
 21
342.52
  0
LINE
  8
0
 10
124.384
 20
342.52
 11
121.34
 21
341.57
  0
LINE
  8
0
 10
121.34
 20
341.57
 11
118.314
 21
340.565
  0
LINE
  8
0
 10
118.314
 20
340.565
 11
115.307
 21
339.505
  0
LINE
  8
0
 10
115.307
 20
339.505
 11
112.32
 21
338.39
  0
LINE
  8
0
 10
112.32
 20
338.39
 11
109.353
 21
337.221
  0
LINE
  8
0
 10
109.353
 20
337.221
 11
106.307
 21
335.954
  0
LINE
  8
0
 10
106.307
 20
335.954
 11
103.386
 21
334.676
  0
LINE
  8
0
 10
103.386
 20
334.676
 11
100.489
 21
333.345
  0
LINE
  8
0
 10
100.489
 20
333.345
 11
97.6159
 21
331.961
  0
LINE
  8
0
 10
97.6159
 20
331.961
 11
94.6712
 21
330.474
  0
LINE
  8
0
 10
94.6712
 20
330.474
 11
91.8518
 21
328.985
  0
LINE
  8
0
 10
91.8518
 20
328.985
 11
89.0599
 21
327.444
  0
LINE
  8
0
 10
89.0599
 20
327.444
 11
86.2018
 21
325.798
  0
LINE
  8
0
 10
86.2018
 20
325.798
 11
83.3753
 21
324.097
  0
LINE
  8
0
 10
83.3753
 20
324.097
 11
80.674
 21
322.403
  0
LINE
  8
0
 10
80.674
 20
322.403
 11
77.9124
 21
320.599
  0
LINE
  8
0
 10
77.9124
 20
320.599
 11
75.2757
 21
318.806
  0
LINE
  8
0
 10
75.2757
 20
318.806
 11
72.5829
 21
316.9
  0
LINE
  8
0
 10
72.5829
 20
316.9
 11
70.0144
 21
315.011
  0
LINE
  8
0
 10
70.0144
 20
315.011
 11
67.4808
 21
313.075
  0
LINE
  8
0
 10
67.4808
 20
313.075
 11
64.9829
 21
311.093
  0
LINE
  8
0
 10
64.9829
 20
311.093
 11
62.5215
 21
309.066
  0
LINE
  8
0
 10
62.5215
 20
309.066
 11
60.0146
 21
306.922
  0
LINE
  8
0
 10
60.0146
 20
306.922
 11
57.63
 21
304.805
  0
LINE
  8
0
 10
57.63
 20
304.805
 11
55.2844
 21
302.645
  0
LINE
  8
0
 10
55.2844
 20
302.645
 11
52.9786
 21
300.442
  0
LINE
  8
0
 10
52.9786
 20
300.442
 11
50.6359
 21
298.12
  0
LINE
  8
0
 10
50.6359
 20
298.12
 11
48.4133
 21
295.834
  0
LINE
  8
0
 10
48.4133
 20
295.834
 11
46.2327
 21
293.507
  0
LINE
  8
0
 10
46.2327
 20
293.507
 11
44.0948
 21
291.141
  0
LINE
  8
0
 10
44.0948
 20
291.141
 11
42.0004
 21
288.737
  0
LINE
  8
0
 10
42.0004
 20
288.737
 11
39.9502
 21
286.295
  0
LINE
  8
0
 10
39.9502
 20
286.295
 11
37.9448
 21
283.816
  0
LINE
  8
0
 10
37.9448
 20
283.816
 11
35.9849
 21
281.3
  0
LINE
  8
0
 10
35.9849
 20
281.3
 11
34.0711
 21
278.75
  0
LINE
  8
0
 10
34.0711
 20
278.75
 11
32.2042
 21
276.165
  0
LINE
  8
0
 10
32.2042
 20
276.165
 11
30.3846
 21
273.546
  0
LINE
  8
0
 10
30.3846
 20
273.546
 11
28.5529
 21
270.803
  0
LINE
  8
0
 10
28.5529
 20
270.803
 11
26.7731
 21
268.026
  0
LINE
  8
0
 10
26.7731
 20
268.026
 11
25.1028
 21
265.31
  0
LINE
  8
0
 10
25.1028
 20
265.31
 11
23.4822
 21
262.563
  0
LINE
  8
0
 10
23.4822
 20
262.563
 11
21.8587
 21
259.692
  0
LINE
  8
0
 10
21.8587
 20
259.692
 11
20.341
 21
256.888
  0
LINE
  8
0
 10
20.341
 20
256.888
 11
18.8747
 21
254.056
  0
LINE
  8
0
 10
18.8747
 20
254.056
 11
17.4602
 21
251.198
  0
LINE
  8
0
 10
17.4602
 20
251.198
 11
16.0519
 21
248.216
  0
LINE
  8
0
 10
16.0519
 20
248.216
 11
14.7443
 21
245.307
  0
LINE
  8
0
 10
14.7443
 20
245.307
 11
13.4899
 21
242.376
  0
LINE
  8
0
 10
13.4899
 20
242.376
 11
12.2487
 21
239.32
  0
LINE
  8
0
 10
12.2487
 20
239.32
 11
11.1038
 21
236.344
  0
LINE
  8
0
 10
11.1038
 20
236.344
 11
10.0133
 21
233.347
  0
LINE
  8
0
 10
10.0133
 20
233.347
 11
8.97758
 21
230.331
  0
LINE
  8
0
 10
8.97758
 20
230.331
 11
7.99699
 21
227.297
  0
LINE
  8
0
 10
7.99699
 20
227.297
 11
7.04094
 21
224.14
  0
LINE
  8
0
 10
7.04094
 20
224.14
 11
6.14456
 21
220.966
  0
LINE
  8
0
 10
6.14456
 20
220.966
 11
5.33508
 21
217.881
  0
LINE
  8
0
 10
5.33508
 20
217.881
 11
4.58194
 21
214.783
  0
LINE
  8
0
 10
4.58194
 20
214.783
 11
3.88538
 21
211.671
  0
LINE
  8
0
 10
3.88538
 20
211.671
 11
3.24562
 21
208.547
  0
LINE
  8
0
 10
3.24562
 20
208.547
 11
2.64381
 21
205.304
  0
LINE
  8
0
 10
2.64381
 20
205.304
 11
2.12029
 21
202.159
  0
LINE
  8
0
 10
2.12029
 20
202.159
 11
1.65414
 21
199.004
  0
LINE
  8
0
 10
1.65414
 20
199.004
 11
1.24554
 21
195.842
  0
LINE
  8
0
 10
1.24554
 20
195.842
 11
0.883575
 21
192.563
  0
LINE
  8
0
 10
0.883575
 20
192.563
 11
0.583466
 21
189.278
  0
LINE
  8
0
 10
0.583466
 20
189.278
 11
0.352264
 21
186.098
  0
LINE
  8
0
 10
0.352264
 20
186.098
 11
0.179047
 21
182.914
  0
LINE
  8
0
 10
0.179047
 20
182.914
 11
0.0638733
 21
179.728
  0
LINE
  8
0
 10
0.0638733
 20
179.728
 11
0.0067749
 21
176.539
  0
LINE
  8
0
 10
0.0067749
 20
176.539
 11
0.0088501
 21
173.241
  0
LINE
  8
0
 10
0.0088501
 20
173.241
 11
0.0699463
 21
170.053
  0
LINE
  8
0
 10
0.0699463
 20
170.053
 11
0.194275
 21
166.756
  0
LINE
  8
0
 10
0.194275
 20
166.756
 11
0.380707
 21
163.463
  0
LINE
  8
0
 10
0.380707
 20
163.463
 11
0.629181
 21
160.174
  0
LINE
  8
0
 10
0.629181
 20
160.174
 11
0.928268
 21
156.999
  0
LINE
  8
0
 10
0.928268
 20
156.999
 11
1.28514
 21
153.831
  0
LINE
  8
0
 10
1.28514
 20
153.831
 11
1.71501
 21
150.56
  0
LINE
  8
0
 10
1.71501
 20
150.56
 11
2.20645
 21
147.298
  0
LINE
  8
0
 10
2.20645
 20
147.298
 11
2.73987
 21
144.154
  0
LINE
  8
0
 10
2.73987
 20
144.154
 11
3.35187
 21
140.913
  0
LINE
  8
0
 10
3.35187
 20
140.913
 11
4.02484
 21
137.684
  0
LINE
  8
0
 10
4.02484
 20
137.684
 11
4.73314
 21
134.575
  0
LINE
  8
0
 10
4.73314
 20
134.575
 11
5.52533
 21
131.373
  0
LINE
  8
0
 10
5.52533
 20
131.373
 11
6.34836
 21
128.292
  0
LINE
  8
0
 10
6.34836
 20
128.292
 11
7.22739
 21
125.227
  0
LINE
  8
0
 10
7.22739
 20
125.227
 11
8.19533
 21
122.074
  0
LINE
  8
0
 10
8.19533
 20
122.074
 11
9.22255
 21
118.939
  0
LINE
  8
0
 10
9.22255
 20
118.939
 11
10.3087
 21
115.824
  0
LINE
  8
0
 10
10.3087
 20
115.824
 11
11.4142
 21
112.833
  0
LINE
  8
0
 10
11.4142
 20
112.833
 11
12.574
 21
109.863
  0
LINE
  8
0
 10
12.574
 20
109.863
 11
13.8306
 21
106.813
  0
LINE
  8
0
 10
13.8306
 20
106.813
 11
15.0997
 21
103.888
  0
LINE
  8
0
 10
15.0997
 20
103.888
 11
16.422
 21
100.986
  0
LINE
  8
0
 10
16.422
 20
100.986
 11
17.7968
 21
98.1094
  0
LINE
  8
0
 10
17.7968
 20
98.1094
 11
19.2239
 21
95.2579
  0
LINE
  8
0
 10
19.2239
 20
95.2579
 11
20.7546
 21
92.3359
  0
LINE
  8
0
 10
20.7546
 20
92.3359
 11
22.2863
 21
89.5393
  0
LINE
  8
0
 10
22.2863
 20
89.5393
 11
23.8688
 21
86.771
  0
LINE
  8
0
 10
23.8688
 20
86.771
 11
25.5014
 21
84.032
  0
LINE
  8
0
 10
25.5014
 20
84.032
 11
27.2426
 21
81.2303
  0
LINE
  8
0
 10
27.2426
 20
81.2303
 11
28.9756
 21
78.5537
  0
LINE
  8
0
 10
28.9756
 20
78.5537
 11
30.7572
 21
75.9091
  0
LINE
  8
0
 10
30.7572
 20
75.9091
 11
32.6505
 21
73.208
  0
LINE
  8
0
 10
32.6505
 20
73.208
 11
34.5288
 21
70.6312
  0
LINE
  8
0
 10
34.5288
 20
70.6312
 11
36.521
 21
68.0021
  0
LINE
  8
0
 10
36.521
 20
68.0021
 11
38.5623
 21
65.411
  0
LINE
  8
0
 10
38.5623
 20
65.411
 11
40.5817
 21
62.9433
  0
LINE
  8
0
 10
40.5817
 20
62.9433
 11
42.7177
 21
60.4296
  0
LINE
  8
0
 10
42.7177
 20
60.4296
 11
44.8271
 21
58.0384
  0
LINE
  8
0
 10
44.8271
 20
58.0384
 11
46.9798
 21
55.686
  0
LINE
  8
0
 10
46.9798
 20
55.686
 11
49.2514
 21
53.2943
  0
LINE
  8
0
 10
49.2514
 20
53.2943
 11
51.4898
 21
51.0233
  0
LINE
  8
0
 10
51.4898
 20
51.0233
 11
53.7692
 21
48.7935
  0
LINE
  8
0
 10
53.7692
 20
48.7935
 11
56.0888
 21
46.6056
  0
LINE
  8
0
 10
56.0888
 20
46.6056
 11
58.53
 21
44.3871
  0
LINE
  8
0
 10
58.53
 20
44.3871
 11
60.9291
 21
42.2867
  0
LINE
  8
0
 10
60.9291
 20
42.2867
 11
63.3661
 21
40.2303
  0
LINE
  8
0
 10
63.3661
 20
40.2303
 11
65.9261
 21
38.1501
  0
LINE
  8
0
 10
65.9261
 20
38.1501
 11
68.5249
 21
36.1186
  0
LINE
  8
0
 10
68.5249
 20
36.1186
 11
71.1615
 21
34.1363
  0
LINE
  8
0
 10
71.1615
 20
34.1363
 11
73.7453
 21
32.2678
  0
LINE
  8
0
 10
73.7453
 20
32.2678
 11
76.3628
 21
30.4466
  0
LINE
  8
0
 10
76.3628
 20
30.4466
 11
79.1049
 21
28.6131
  0
LINE
  8
0
 10
79.1049
 20
28.6131
 11
81.788
 21
26.8902
  0
LINE
  8
0
 10
81.788
 20
26.8902
 11
84.5962
 21
25.1596
  0
LINE
  8
0
 10
84.5962
 20
25.1596
 11
87.4365
 21
23.4822
  0
LINE
  8
0
 10
87.4365
 20
23.4822
 11
90.308
 21
21.8587
  0
LINE
  8
0
 10
90.308
 20
21.8587
 11
93.1123
 21
20.341
  0
LINE
  8
0
 10
93.1123
 20
20.341
 11
95.9438
 21
18.8747
  0
LINE
  8
0
 10
95.9438
 20
18.8747
 11
98.8016
 21
17.4602
  0
LINE
  8
0
 10
98.8016
 20
17.4602
 11
101.784
 21
16.0519
  0
LINE
  8
0
 10
101.784
 20
16.0519
 11
104.693
 21
14.7443
  0
LINE
  8
0
 10
104.693
 20
14.7443
 11
107.624
 21
13.4899
  0
LINE
  8
0
 10
107.624
 20
13.4899
 11
110.68
 21
12.2487
  0
LINE
  8
0
 10
110.68
 20
12.2487
 11
113.656
 21
11.1038
  0
LINE
  8
0
 10
113.656
 20
11.1038
 11
116.653
 21
10.0133
  0
LINE
  8
0
 10
116.653
 20
10.0133
 11
119.669
 21
8.97758
  0
LINE
  8
0
 10
119.669
 20
8.97758
 11
122.703
 21
7.99699
  0
LINE
  8
0
 10
122.703
 20
7.99699
 11
125.86
 21
7.04094
  0
LINE
  8
0
 10
125.86
 20
7.04094
 11
129.034
 21
6.14456
  0
LINE
  8
0
 10
129.034
 20
6.14456
 11
132.119
 21
5.33508
  0
LINE
  8
0
 10
132.119
 20
5.33508
 11
135.217
 21
4.58194
  0
LINE
  8
0
 10
135.217
 20
4.58194
 11
138.329
 21
3.88538
  0
LINE
  8
0
 10
138.329
 20
3.88538
 11
141.453
 21
3.24562
  0
LINE
  8
0
 10
141.453
 20
3.24562
 11
144.696
 21
2.64381
  0
LINE
  8
0
 10
144.696
 20
2.64381
 11
147.841
 21
2.12029
  0
LINE
  8
0
 10
147.841
 20
2.12029
 11
150.996
 21
1.65414
  0
LINE
  8
0
 10
150.996
 20
1.65414
 11
154.158
 21
1.24554
  0
LINE
  8
0
 10
154.158
 20
1.24554
 11
157.437
 21
0.883575
  0
LINE
  8
0
 10
157.437
 20
0.883575
 11
160.722
 21
0.583466
  0
LINE
  8
0
 10
160.722
 20
0.583466
 11
163.902
 21
0.352264
  0
LINE
  8
0
 10
163.902
 20
0.352264
 11
167.086
 21
0.179047
  0
LINE
  8
0
 10
167.086
 20
0.179047
 11
170.272
 21
0.0638733
  0
LINE
  8
0
 10
170.272
 20
0.0638733
 11
171.921
 21
0.0270844
  0
LINE
  8
0
 10
171.921
 20
0.0270844
 11
175.22
 21
0.000152588
  0
LINE
  8
0
 10
175.22
 20
0.000152588
 11
178.408
 21
0.0332031
  0
LINE
  8
0
 10
143.5
 20
358.5
 11
143.5
 21
371.5
  0
LINE
  8
0
 10
143.5
 20
371.5
 11
156.5
 21
371.5
  0
LINE
  8
0
 10
156.5
 20
371.5
 11
156.5
 21
358.5
  0
LINE
  8
0
 10
156.5
 20
358.5
 11
143.5
 21
358.5
  0
LINE
  8
0
 10
193.5
 20
358.5
 11
193.5
 21
371.5
  0
LINE
  8
0
 10
193.5
 20
371.5
 11
206.5
 21
371.5
  0
LINE
  8
0
 10
206.5
 20
371.5
 11
206.5
 21
358.5
  0
LINE
  8
0
 10
206.5
 20
358.5
 11
193.5
 21
358.5
  0
ENDSEC
  0
SECTION
  2
OBJECTS
  0
DICTIONARY
  0
ENDSEC
  0
EOF
