  0
SECTION
  2
BLOCKS
  0
ENDSEC
  0
SECTION
  2
ENTITIES
  0
LINE
  8
0
 10
228.534
 20
0.027771
 11
231.785
 21
0.102325
  0
LINE
  8
0
 10
231.785
 20
0.102325
 11
235.034
 21
0.223862
  0
LINE
  8
0
 10
235.034
 20
0.223862
 11
238.281
 21
0.392334
  0
LINE
  8
0
 10
238.281
 20
0.392334
 11
241.526
 21
0.607712
  0
LINE
  8
0
 10
241.526
 20
0.607712
 11
244.767
 21
0.869949
  0
LINE
  8
0
 10
244.767
 20
0.869949
 11
248.003
 21
1.17899
  0
LINE
  8
0
 10
248.003
 20
1.17899
 11
251.235
 21
1.53477
  0
LINE
  8
0
 10
251.235
 20
1.53477
 11
254.462
 21
1.93724
  0
LINE
  8
0
 10
254.462
 20
1.93724
 11
257.682
 21
2.38628
  0
LINE
  8
0
 10
257.682
 20
2.38628
 11
260.896
 21
2.88181
  0
LINE
  8
0
 10
260.896
 20
2.88181
 11
264.102
 21
3.42372
  0
LINE
  8
0
 10
264.102
 20
3.42372
 11
267.3
 21
4.01192
  0
LINE
  8
0
 10
267.3
 20
4.01192
 11
270.489
 21
4.64626
  0
LINE
  8
0
 10
270.489
 20
4.64626
 11
273.668
 21
5.32661
  0
LINE
  8
0
 10
273.668
 20
5.32661
 11
276.838
 21
6.05284
  0
LINE
  8
0
 10
276.838
 20
6.05284
 11
279.996
 21
6.8248
  0
LINE
  8
0
 10
279.996
 20
6.8248
 11
283.143
 21
7.64232
  0
LINE
  8
0
 10
283.143
 20
7.64232
 11
286.278
 21
8.50523
  0
LINE
  8
0
 10
286.278
 20
8.50523
 11
289.4
 21
9.41336
  0
LINE
  8
0
 10
289.4
 20
9.41336
 11
292.509
 21
10.3665
  0
LINE
  8
0
 10
292.509
 20
10.3665
 11
295.604
 21
11.3645
  0
LINE
  8
0
 10
295.604
 20
11.3645
 11
298.683
 21
12.4071
  0
LINE
  8
0
 10
298.683
 20
12.4071
 11
301.748
 21
13.494
  0
LINE
  8
0
 10
301.748
 20
13.494
 11
304.796
 21
14.6252
  0
LINE
  8
0
 10
304.796
 20
14.6252
 11
307.828
 21
15.8003
  0
LINE
  8
0
 10
307.828
 20
15.8003
 11
310.842
 21
17.0191
  0
LINE
  8
0
 10
310.842
 20
17.0191
 11
313.839
 21
18.2813
  0
LINE
  8
0
 10
313.839
 20
18.2813
 11
316.817
 21
19.5867
  0
LINE
  8
0
 10
316.817
 20
19.5867
 11
319.776
 21
20.935
  0
LINE
  8
0
 10
319.776
 20
20.935
 11
322.715
 21
22.3259
  0
LINE
  8
0
 10
322.715
 20
22.3259
 11
325.633
 21
23.7591
  0
LINE
  8
0
 10
325.633
 20
23.7591
 11
328.531
 21
25.2343
  0
LINE
  8
0
 10
328.531
 20
25.2343
 11
331.407
 21
26.7513
  0
LINE
  8
0
 10
331.407
 20
26.7513
 11
334.261
 21
28.3097
  0
LINE
  8
0
 10
334.261
 20
28.3097
 11
337.092
 21
29.9091
  0
LINE
  8
0
 10
337.092
 20
29.9091
 11
339.899
 21
31.5493
  0
LINE
  8
0
 10
339.899
 20
31.5493
 11
342.683
 21
33.2299
  0
LINE
  8
0
 10
342.683
 20
33.2299
 11
345.442
 21
34.9505
  0
LINE
  8
0
 10
345.442
 20
34.9505
 11
348.175
 21
36.7108
  0
LINE
  8
0
 10
348.175
 20
36.7108
 11
350.883
 21
38.5105
  0
LINE
  8
0
 10
350.883
 20
38.5105
 11
353.565
 21
40.3491
  0
LINE
  8
0
 10
353.565
 20
40.3491
 11
356.22
 21
42.2262
  0
LINE
  8
0
 10
356.22
 20
42.2262
 11
358.848
 21
44.1416
  0
LINE
  8
0
 10
358.848
 20
44.1416
 11
361.447
 21
46.0947
  0
LINE
  8
0
 10
361.447
 20
46.0947
 11
364.018
 21
48.0851
  0
LINE
  8
0
 10
364.018
 20
48.0851
 11
366.56
 21
50.1125
  0
LINE
  8
0
 10
366.56
 20
50.1125
 11
369.073
 21
52.1764
  0
LINE
  8
0
 10
369.073
 20
52.1764
 11
371.555
 21
54.2765
  0
LINE
  8
0
 10
371.555
 20
54.2765
 11
374.007
 21
56.4121
  0
LINE
  8
0
 10
374.007
 20
56.4121
 11
376.428
 21
58.583
  0
LINE
  8
0
 10
376.428
 20
58.583
 11
378.817
 21
60.7887
  0
LINE
  8
0
 10
378.817
 20
60.7887
 11
381.174
 21
63.0286
  0
LINE
  8
0
 10
381.174
 20
63.0286
 11
383.498
 21
65.3023
  0
LINE
  8
0
 10
383.498
 20
65.3023
 11
385.789
 21
67.6094
  0
LINE
  8
0
 10
385.789
 20
67.6094
 11
388.047
 21
69.9494
  0
LINE
  8
0
 10
388.047
 20
69.9494
 11
390.271
 21
72.3217
  0
LINE
  8
0
 10
390.271
 20
72.3217
 11
392.46
 21
74.726
  0
LINE
  8
0
 10
392.46
 20
74.726
 11
394.614
 21
77.1616
  0
LINE
  8
0
 10
394.614
 20
77.1616
 11
396.732
 21
79.6281
  0
LINE
  8
0
 10
396.732
 20
79.6281
 11
398.815
 21
82.125
  0
LINE
  8
0
 10
398.815
 20
82.125
 11
400.862
 21
84.6517
  0
LINE
  8
0
 10
400.862
 20
84.6517
 11
402.871
 21
87.2077
  0
LINE
  8
0
 10
402.871
 20
87.2077
 11
404.844
 21
89.7924
  0
LINE
  8
0
 10
404.844
 20
89.7924
 11
406.779
 21
92.4054
  0
LINE
  8
0
 10
406.779
 20
92.4054
 11
408.676
 21
95.0461
  0
LINE
  8
0
 10
408.676
 20
95.0461
 11
410.535
 21
97.714
  0
LINE
  8
0
 10
410.535
 20
97.714
 11
412.355
 21
100.408
  0
LINE
  8
0
 10
412.355
 20
100.408
 11
414.136
 21
103.129
  0
LINE
  8
0
 10
414.136
 20
103.129
 11
415.877
 21
105.875
  0
LINE
  8
0
 10
415.877
 20
105.875
 11
417.579
 21
108.646
  0
LINE
  8
0
 10
417.579
 20
108.646
 11
419.24
 21
111.441
  0
LINE
  8
0
 10
419.24
 20
111.441
 11
420.861
 21
114.259
  0
LINE
  8
0
 10
420.861
 20
114.259
 11
422.441
 21
117.101
  0
LINE
  8
0
 10
422.441
 20
117.101
 11
423.979
 21
119.966
  0
LINE
  8
0
 10
423.979
 20
119.966
 11
425.476
 21
122.852
  0
LINE
  8
0
 10
425.476
 20
122.852
 11
426.932
 21
125.76
  0
LINE
  8
0
 10
426.932
 20
125.76
 11
428.345
 21
128.688
  0
LINE
  8
0
 10
428.345
 20
128.688
 11
429.715
 21
131.637
  0
LINE
  8
0
 10
429.715
 20
131.637
 11
431.043
 21
134.605
  0
LINE
  8
0
 10
431.043
 20
134.605
 11
432.328
 21
137.592
  0
LINE
  8
0
 10
432.328
 20
137.592
 11
433.569
 21
140.597
  0
LINE
  8
0
 10
433.569
 20
140.597
 11
434.767
 21
143.62
  0
LINE
  8
0
 10
434.767
 20
143.62
 11
435.921
 21
146.66
  0
LINE
  8
0
 10
435.921
 20
146.66
 11
437.031
 21
149.716
  0
LINE
  8
0
 10
437.031
 20
149.716
 11
438.097
 21
152.788
  0
LINE
  8
0
 10
438.097
 20
152.788
 11
439.118
 21
155.875
  0
LINE
  8
0
 10
439.118
 20
155.875
 11
440.095
 21
158.976
  0
LINE
  8
0
 10
440.095
 20
158.976
 11
441.027
 21
162.091
  0
LINE
  8
0
 10
441.027
 20
162.091
 11
441.913
 21
165.22
  0
LINE
  8
0
 10
441.913
 20
165.22
 11
442.754
 21
168.36
  0
LINE
  8
0
 10
442.754
 20
168.36
 11
443.55
 21
171.513
  0
LINE
  8
0
 10
443.55
 20
171.513
 11
444.3
 21
174.677
  0
LINE
  8
0
 10
444.3
 20
174.677
 11
445.005
 21
177.851
  0
LINE
  8
0
 10
445.005
 20
177.851
 11
445.663
 21
181.035
  0
LINE
  8
0
 10
445.663
 20
181.035
 11
446.275
 21
184.229
  0
LINE
  8
0
 10
446.275
 20
184.229
 11
446.841
 21
187.431
  0
LINE
  8
0
 10
446.841
 20
187.431
 11
447.361
 21
190.64
  0
LINE
  8
0
 10
447.361
 20
190.64
 11
447.834
 21
193.857
  0
LINE
  8
0
 10
447.834
 20
193.857
 11
448.261
 21
197.081
  0
LINE
  8
0
 10
448.261
 20
197.081
 11
448.641
 21
200.31
  0
LINE
  8
0
 10
448.641
 20
200.31
 11
448.975
 21
203.544
  0
LINE
  8
0
 10
448.975
 20
203.544
 11
449.261
 21
206.783
  0
LINE
  8
0
 10
449.261
 20
206.783
 11
449.501
 21
210.026
  0
LINE
  8
0
 10
449.501
 20
210.026
 11
449.694
 21
213.271
  0
LINE
  8
0
 10
449.694
 20
213.271
 11
449.84
 21
216.52
  0
LINE
  8
0
 10
449.84
 20
216.52
 11
449.939
 21
219.77
  0
LINE
  8
0
 10
449.939
 20
219.77
 11
449.991
 21
223.021
  0
LINE
  8
0
 10
449.991
 20
223.021
 11
449.996
 21
226.272
  0
LINE
  8
0
 10
449.996
 20
226.272
 11
449.955
 21
229.524
  0
LINE
  8
0
 10
449.955
 20
229.524
 11
449.866
 21
232.774
  0
LINE
  8
0
 10
449.866
 20
232.774
 11
449.73
 21
236.023
  0
LINE
  8
0
 10
449.73
 20
236.023
 11
449.547
 21
239.269
  0
LINE
  8
0
 10
449.547
 20
239.269
 11
449.317
 21
242.512
  0
LINE
  8
0
 10
449.317
 20
242.512
 11
449.041
 21
245.752
  0
LINE
  8
0
 10
449.041
 20
245.752
 11
448.718
 21
248.988
  0
LINE
  8
0
 10
448.718
 20
248.988
 11
448.348
 21
252.218
  0
LINE
  8
0
 10
448.348
 20
252.218
 11
447.931
 21
255.443
  0
LINE
  8
0
 10
447.931
 20
255.443
 11
447.468
 21
258.661
  0
LINE
  8
0
 10
447.468
 20
258.661
 11
446.958
 21
261.872
  0
LINE
  8
0
 10
446.958
 20
261.872
 11
446.402
 21
265.076
  0
LINE
  8
0
 10
446.402
 20
265.076
 11
445.8
 21
268.271
  0
LINE
  8
0
 10
445.8
 20
268.271
 11
445.152
 21
271.457
  0
LINE
  8
0
 10
445.152
 20
271.457
 11
444.457
 21
274.634
  0
LINE
  8
0
 10
444.457
 20
274.634
 11
443.717
 21
277.8
  0
LINE
  8
0
 10
443.717
 20
277.8
 11
442.931
 21
280.955
  0
LINE
  8
0
 10
442.931
 20
280.955
 11
442.1
 21
284.099
  0
LINE
  8
0
 10
442.1
 20
284.099
 11
441.223
 21
287.23
  0
LINE
  8
0
 10
441.223
 20
287.23
 11
440.301
 21
290.348
  0
LINE
  8
0
 10
440.301
 20
290.348
 11
439.334
 21
293.452
  0
LINE
  8
0
 10
439.334
 20
293.452
 11
438.323
 21
296.542
  0
LINE
  8
0
 10
438.323
 20
296.542
 11
437.267
 21
299.618
  0
LINE
  8
0
 10
437.267
 20
299.618
 11
436.166
 21
302.677
  0
LINE
  8
0
 10
436.166
 20
302.677
 11
435.022
 21
305.721
  0
LINE
  8
0
 10
435.022
 20
305.721
 11
433.833
 21
308.747
  0
LINE
  8
0
 10
433.833
 20
308.747
 11
432.601
 21
311.756
  0
LINE
  8
0
 10
432.601
 20
311.756
 11
431.326
 21
314.747
  0
LINE
  8
0
 10
431.326
 20
314.747
 11
430.008
 21
317.72
  0
LINE
  8
0
 10
430.008
 20
317.72
 11
428.646
 21
320.672
  0
LINE
  8
0
 10
428.646
 20
320.672
 11
427.242
 21
323.605
  0
LINE
  8
0
 10
427.242
 20
323.605
 11
425.796
 21
326.518
  0
LINE
  8
0
 10
425.796
 20
326.518
 11
424.308
 21
329.409
  0
LINE
  8
0
 10
424.308
 20
329.409
 11
422.779
 21
332.278
  0
LINE
  8
0
 10
422.779
 20
332.278
 11
421.208
 21
335.125
  0
LINE
  8
0
 10
421.208
 20
335.125
 11
419.596
 21
337.949
  0
LINE
  8
0
 10
419.596
 20
337.949
 11
417.943
 21
340.749
  0
LINE
  8
0
 10
417.943
 20
340.749
 11
416.251
 21
343.525
  0
LINE
  8
0
 10
416.251
 20
343.525
 11
414.518
 21
346.276
  0
LINE
  8
0
 10
414.518
 20
346.276
 11
412.746
 21
349.002
  0
LINE
  8
0
 10
412.746
 20
349.002
 11
410.934
 21
351.702
  0
LINE
  8
0
 10
410.934
 20
351.702
 11
409.084
 21
354.376
  0
LINE
  8
0
 10
409.084
 20
354.376
 11
407.195
 21
357.023
  0
LINE
  8
0
 10
407.195
 20
357.023
 11
405.268
 21
359.642
  0
LINE
  8
0
 10
405.268
 20
359.642
 11
403.303
 21
362.233
  0
LINE
  8
0
 10
403.303
 20
362.233
 11
401.302
 21
364.795
  0
LINE
  8
0
 10
401.302
 20
364.795
 11
399.263
 21
367.328
  0
LINE
  8
0
 10
399.263
 20
367.328
 11
397.188
 21
369.832
  0
LINE
  8
0
 10
397.188
 20
369.832
 11
395.077
 21
372.305
  0
LINE
  8
0
 10
395.077
 20
372.305
 11
392.931
 21
374.747
  0
LINE
  8
0
 10
392.931
 20
374.747
 11
390.749
 21
377.158
  0
LINE
  8
0
 10
390.749
 20
377.158
 11
388.533
 21
379.538
  0
LINE
  8
0
 10
388.533
 20
379.538
 11
386.283
 21
381.885
  0
LINE
  8
0
 10
386.283
 20
381.885
 11
383.999
 21
384.199
  0
LINE
  8
0
 10
383.999
 20
384.199
 11
381.682
 21
386.48
  0
LINE
  8
0
 10
381.682
 20
386.48
 11
379.332
 21
388.727
  0
LINE
  8
0
 10
379.332
 20
388.727
 11
376.95
 21
390.94
  0
LINE
  8
0
 10
376.95
 20
390.94
 11
374.536
 21
393.119
  0
LINE
  8
0
 10
374.536
 20
393.119
 11
372.091
 21
395.262
  0
LINE
  8
0
 10
372.091
 20
395.262
 11
369.615
 21
397.37
  0
LINE
  8
0
 10
369.615
 20
397.37
 11
367.109
 21
399.442
  0
LINE
  8
0
 10
367.109
 20
399.442
 11
364.574
 21
401.477
  0
LINE
  8
0
 10
364.574
 20
401.477
 11
362.009
 21
403.476
  0
LINE
  8
0
 10
362.009
 20
403.476
 11
359.415
 21
405.437
  0
LINE
  8
0
 10
359.415
 20
405.437
 11
356.794
 21
407.361
  0
LINE
  8
0
 10
356.794
 20
407.361
 11
354.145
 21
409.246
  0
LINE
  8
0
 10
354.145
 20
409.246
 11
351.469
 21
411.093
  0
LINE
  8
0
 10
351.469
 20
411.093
 11
348.766
 21
412.901
  0
LINE
  8
0
 10
348.766
 20
412.901
 11
346.038
 21
414.67
  0
LINE
  8
0
 10
346.038
 20
414.67
 11
343.285
 21
416.399
  0
LINE
  8
0
 10
343.285
 20
416.399
 11
340.506
 21
418.089
  0
LINE
  8
0
 10
340.506
 20
418.089
 11
337.704
 21
419.738
  0
LINE
  8
0
 10
337.704
 20
419.738
 11
334.878
 21
421.346
  0
LINE
  8
0
 10
334.878
 20
421.346
 11
332.029
 21
422.913
  0
LINE
  8
0
 10
332.029
 20
422.913
 11
329.158
 21
424.439
  0
LINE
  8
0
 10
329.158
 20
424.439
 11
326.265
 21
425.924
  0
LINE
  8
0
 10
326.265
 20
425.924
 11
323.351
 21
427.366
  0
LINE
  8
0
 10
323.351
 20
427.366
 11
320.416
 21
428.766
  0
LINE
  8
0
 10
320.416
 20
428.766
 11
317.462
 21
430.124
  0
LINE
  8
0
 10
317.462
 20
430.124
 11
314.488
 21
431.439
  0
LINE
  8
0
 10
314.488
 20
431.439
 11
311.495
 21
432.71
  0
LINE
  8
0
 10
311.495
 20
432.71
 11
308.485
 21
433.938
  0
LINE
  8
0
 10
308.485
 20
433.938
 11
305.457
 21
435.123
  0
LINE
  8
0
 10
305.457
 20
435.123
 11
302.412
 21
436.264
  0
LINE
  8
0
 10
302.412
 20
436.264
 11
299.351
 21
437.36
  0
LINE
  8
0
 10
299.351
 20
437.36
 11
296.274
 21
438.413
  0
LINE
  8
0
 10
296.274
 20
438.413
 11
293.183
 21
439.42
  0
LINE
  8
0
 10
293.183
 20
439.42
 11
290.077
 21
440.383
  0
LINE
  8
0
 10
290.077
 20
440.383
 11
286.958
 21
441.301
  0
LINE
  8
0
 10
286.958
 20
441.301
 11
283.826
 21
442.174
  0
LINE
  8
0
 10
283.826
 20
442.174
 11
280.681
 21
443.001
  0
LINE
  8
0
 10
280.681
 20
443.001
 11
277.525
 21
443.783
  0
LINE
  8
0
 10
277.525
 20
443.783
 11
274.358
 21
444.519
  0
LINE
  8
0
 10
274.358
 20
444.519
 11
271.181
 21
445.21
  0
LINE
  8
0
 10
271.181
 20
445.21
 11
269.5
 21
445.556
  0
LINE
  8
0
 10
269.5
 20
445.556
 11
269.488
 21
472.047
  0
LINE
  8
0
 10
269.488
 20
472.047
 11
269.4
 21
473.113
  0
LINE
  8
0
 10
269.4
 20
473.113
 11
269.204
 21
474.256
  0
LINE
  8
0
 10
269.204
 20
474.256
 11
268.886
 21
475.447
  0
LINE
  8
0
 10
268.886
 20
475.447
 11
268.575
 21
476.316
  0
LINE
  8
0
 10
268.575
 20
476.316
 11
268.116
 21
477.336
  0
LINE
  8
0
 10
268.116
 20
477.336
 11
267.606
 21
478.258
  0
LINE
  8
0
 10
267.606
 20
478.258
 11
267.122
 21
478.995
  0
LINE
  8
0
 10
267.122
 20
478.995
 11
266.491
 21
479.818
  0
LINE
  8
0
 10
266.491
 20
479.818
 11
265.909
 21
480.47
  0
LINE
  8
0
 10
265.909
 20
480.47
 11
264.961
 21
481.369
  0
LINE
  8
0
 10
264.961
 20
481.369
 11
264.088
 21
482.055
  0
LINE
  8
0
 10
264.088
 20
482.055
 11
263.292
 21
482.584
  0
LINE
  8
0
 10
263.292
 20
482.584
 11
262.561
 21
483
  0
LINE
  8
0
 10
262.561
 20
483
 11
261.52
 21
483.492
  0
LINE
  8
0
 10
261.52
 20
483.492
 11
260.525
 21
483.861
  0
LINE
  8
0
 10
260.525
 20
483.861
 11
259.503
 21
484.148
  0
LINE
  8
0
 10
259.503
 20
484.148
 11
258.63
 21
484.324
  0
LINE
  8
0
 10
258.63
 20
484.324
 11
257.78
 21
484.437
  0
LINE
  8
0
 10
257.78
 20
484.437
 11
256.606
 21
484.5
  0
LINE
  8
0
 10
256.606
 20
484.5
 11
192.953
 21
484.488
  0
LINE
  8
0
 10
192.953
 20
484.488
 11
191.887
 21
484.4
  0
LINE
  8
0
 10
191.887
 20
484.4
 11
190.744
 21
484.204
  0
LINE
  8
0
 10
190.744
 20
484.204
 11
189.553
 21
483.886
  0
LINE
  8
0
 10
189.553
 20
483.886
 11
188.684
 21
483.575
  0
LINE
  8
0
 10
188.684
 20
483.575
 11
187.664
 21
483.116
  0
LINE
  8
0
 10
187.664
 20
483.116
 11
186.742
 21
482.606
  0
LINE
  8
0
 10
186.742
 20
482.606
 11
186.005
 21
482.122
  0
LINE
  8
0
 10
186.005
 20
482.122
 11
185.182
 21
481.491
  0
LINE
  8
0
 10
185.182
 20
481.491
 11
184.53
 21
480.909
  0
LINE
  8
0
 10
184.53
 20
480.909
 11
183.631
 21
479.961
  0
LINE
  8
0
 10
183.631
 20
479.961
 11
182.945
 21
479.088
  0
LINE
  8
0
 10
182.945
 20
479.088
 11
182.416
 21
478.292
  0
LINE
  8
0
 10
182.416
 20
478.292
 11
182
 21
477.561
  0
LINE
  8
0
 10
182
 20
477.561
 11
181.508
 21
476.52
  0
LINE
  8
0
 10
181.508
 20
476.52
 11
181.139
 21
475.525
  0
LINE
  8
0
 10
181.139
 20
475.525
 11
180.852
 21
474.503
  0
LINE
  8
0
 10
180.852
 20
474.503
 11
180.676
 21
473.63
  0
LINE
  8
0
 10
180.676
 20
473.63
 11
180.563
 21
472.78
  0
LINE
  8
0
 10
180.563
 20
472.78
 11
180.5
 21
471.606
  0
LINE
  8
0
 10
180.5
 20
471.606
 11
180.5
 21
445.556
  0
LINE
  8
0
 10
180.5
 20
445.556
 11
177.298
 21
444.885
  0
LINE
  8
0
 10
177.298
 20
444.885
 11
174.126
 21
444.173
  0
LINE
  8
0
 10
174.126
 20
444.173
 11
170.964
 21
443.415
  0
LINE
  8
0
 10
170.964
 20
443.415
 11
167.813
 21
442.611
  0
LINE
  8
0
 10
167.813
 20
442.611
 11
164.675
 21
441.762
  0
LINE
  8
0
 10
164.675
 20
441.762
 11
161.549
 21
440.868
  0
LINE
  8
0
 10
161.549
 20
440.868
 11
158.436
 21
439.928
  0
LINE
  8
0
 10
158.436
 20
439.928
 11
155.337
 21
438.944
  0
LINE
  8
0
 10
155.337
 20
438.944
 11
152.252
 21
437.915
  0
LINE
  8
0
 10
152.252
 20
437.915
 11
149.183
 21
436.841
  0
LINE
  8
0
 10
149.183
 20
436.841
 11
146.13
 21
435.724
  0
LINE
  8
0
 10
146.13
 20
435.724
 11
143.093
 21
434.562
  0
LINE
  8
0
 10
143.093
 20
434.562
 11
140.073
 21
433.356
  0
LINE
  8
0
 10
140.073
 20
433.356
 11
137.071
 21
432.107
  0
LINE
  8
0
 10
137.071
 20
432.107
 11
134.087
 21
430.815
  0
LINE
  8
0
 10
134.087
 20
430.815
 11
131.123
 21
429.48
  0
LINE
  8
0
 10
131.123
 20
429.48
 11
128.178
 21
428.102
  0
LINE
  8
0
 10
128.178
 20
428.102
 11
125.253
 21
426.682
  0
LINE
  8
0
 10
125.253
 20
426.682
 11
122.349
 21
425.219
  0
LINE
  8
0
 10
122.349
 20
425.219
 11
119.466
 21
423.715
  0
LINE
  8
0
 10
119.466
 20
423.715
 11
116.605
 21
422.169
  0
LINE
  8
0
 10
116.605
 20
422.169
 11
113.768
 21
420.582
  0
LINE
  8
0
 10
113.768
 20
420.582
 11
110.953
 21
418.954
  0
LINE
  8
0
 10
110.953
 20
418.954
 11
108.162
 21
417.286
  0
LINE
  8
0
 10
108.162
 20
417.286
 11
105.395
 21
415.577
  0
LINE
  8
0
 10
105.395
 20
415.577
 11
102.654
 21
413.829
  0
LINE
  8
0
 10
102.654
 20
413.829
 11
99.9379
 21
412.041
  0
LINE
  8
0
 10
99.9379
 20
412.041
 11
97.2481
 21
410.215
  0
LINE
  8
0
 10
97.2481
 20
410.215
 11
94.5849
 21
408.349
  0
LINE
  8
0
 10
94.5849
 20
408.349
 11
91.949
 21
406.445
  0
LINE
  8
0
 10
91.949
 20
406.445
 11
89.3409
 21
404.504
  0
LINE
  8
0
 10
89.3409
 20
404.504
 11
86.761
 21
402.525
  0
LINE
  8
0
 10
86.761
 20
402.525
 11
84.2101
 21
400.508
  0
LINE
  8
0
 10
84.2101
 20
400.508
 11
81.6886
 21
398.456
  0
LINE
  8
0
 10
81.6886
 20
398.456
 11
79.197
 21
396.366
  0
LINE
  8
0
 10
79.197
 20
396.366
 11
76.7358
 21
394.242
  0
LINE
  8
0
 10
76.7358
 20
394.242
 11
74.3056
 21
392.081
  0
LINE
  8
0
 10
74.3056
 20
392.081
 11
71.9069
 21
389.886
  0
LINE
  8
0
 10
71.9069
 20
389.886
 11
69.5401
 21
387.657
  0
LINE
  8
0
 10
69.5401
 20
387.657
 11
67.2058
 21
385.393
  0
LINE
  8
0
 10
67.2058
 20
385.393
 11
64.9045
 21
383.096
  0
LINE
  8
0
 10
64.9045
 20
383.096
 11
62.6366
 21
380.766
  0
LINE
  8
0
 10
62.6366
 20
380.766
 11
60.4026
 21
378.404
  0
LINE
  8
0
 10
60.4026
 20
378.404
 11
58.203
 21
376.009
  0
LINE
  8
0
 10
58.203
 20
376.009
 11
56.0382
 21
373.583
  0
LINE
  8
0
 10
56.0382
 20
373.583
 11
53.9087
 21
371.126
  0
LINE
  8
0
 10
53.9087
 20
371.126
 11
51.8149
 21
368.638
  0
LINE
  8
0
 10
51.8149
 20
368.638
 11
49.7573
 21
366.12
  0
LINE
  8
0
 10
49.7573
 20
366.12
 11
47.7363
 21
363.573
  0
LINE
  8
0
 10
47.7363
 20
363.573
 11
45.7523
 21
360.997
  0
LINE
  8
0
 10
45.7523
 20
360.997
 11
43.8057
 21
358.393
  0
LINE
  8
0
 10
43.8057
 20
358.393
 11
41.897
 21
355.76
  0
LINE
  8
0
 10
41.897
 20
355.76
 11
40.0265
 21
353.101
  0
LINE
  8
0
 10
40.0265
 20
353.101
 11
38.1947
 21
350.414
  0
LINE
  8
0
 10
38.1947
 20
350.414
 11
36.4019
 21
347.702
  0
LINE
  8
0
 10
36.4019
 20
347.702
 11
34.6484
 21
344.964
  0
LINE
  8
0
 10
34.6484
 20
344.964
 11
32.9347
 21
342.2
  0
LINE
  8
0
 10
32.9347
 20
342.2
 11
31.2611
 21
339.413
  0
LINE
  8
0
 10
31.2611
 20
339.413
 11
29.628
 21
336.601
  0
LINE
  8
0
 10
29.628
 20
336.601
 11
28.0357
 21
333.766
  0
LINE
  8
0
 10
28.0357
 20
333.766
 11
26.4845
 21
330.908
  0
LINE
  8
0
 10
26.4845
 20
330.908
 11
24.9747
 21
328.029
  0
LINE
  8
0
 10
24.9747
 20
328.029
 11
23.5068
 21
325.127
  0
LINE
  8
0
 10
23.5068
 20
325.127
 11
22.0809
 21
322.205
  0
LINE
  8
0
 10
22.0809
 20
322.205
 11
20.6974
 21
319.263
  0
LINE
  8
0
 10
20.6974
 20
319.263
 11
19.3566
 21
316.3
  0
LINE
  8
0
 10
19.3566
 20
316.3
 11
18.0587
 21
313.319
  0
LINE
  8
0
 10
18.0587
 20
313.319
 11
16.804
 21
310.319
  0
LINE
  8
0
 10
16.804
 20
310.319
 11
15.5928
 21
307.302
  0
LINE
  8
0
 10
15.5928
 20
307.302
 11
14.4253
 21
304.267
  0
LINE
  8
0
 10
14.4253
 20
304.267
 11
13.3018
 21
301.216
  0
LINE
  8
0
 10
13.3018
 20
301.216
 11
12.2225
 21
298.149
  0
LINE
  8
0
 10
12.2225
 20
298.149
 11
11.1877
 21
295.066
  0
LINE
  8
0
 10
11.1877
 20
295.066
 11
10.1975
 21
291.969
  0
LINE
  8
0
 10
10.1975
 20
291.969
 11
9.25218
 21
288.858
  0
LINE
  8
0
 10
9.25218
 20
288.858
 11
8.35191
 21
285.734
  0
LINE
  8
0
 10
8.35191
 20
285.734
 11
7.49687
 21
282.597
  0
LINE
  8
0
 10
7.49687
 20
282.597
 11
6.68727
 21
279.448
  0
LINE
  8
0
 10
6.68727
 20
279.448
 11
5.92325
 21
276.287
  0
LINE
  8
0
 10
5.92325
 20
276.287
 11
5.20499
 21
273.116
  0
LINE
  8
0
 10
5.20499
 20
273.116
 11
4.53262
 21
269.935
  0
LINE
  8
0
 10
4.53262
 20
269.935
 11
3.9063
 21
266.744
  0
LINE
  8
0
 10
3.9063
 20
266.744
 11
3.32614
 21
263.545
  0
LINE
  8
0
 10
3.32614
 20
263.545
 11
2.7923
 21
260.337
  0
LINE
  8
0
 10
2.7923
 20
260.337
 11
2.30484
 21
257.123
  0
LINE
  8
0
 10
2.30484
 20
257.123
 11
1.86389
 21
253.901
  0
LINE
  8
0
 10
1.86389
 20
253.901
 11
1.46954
 21
250.674
  0
LINE
  8
0
 10
1.46954
 20
250.674
 11
1.12189
 21
247.441
  0
LINE
  8
0
 10
1.12189
 20
247.441
 11
0.820969
 21
244.203
  0
LINE
  8
0
 10
0.820969
 20
244.203
 11
0.566879
 21
240.962
  0
LINE
  8
0
 10
0.566879
 20
240.962
 11
0.359665
 21
237.717
  0
LINE
  8
0
 10
0.359665
 20
237.717
 11
0.199356
 21
234.469
  0
LINE
  8
0
 10
0.199356
 20
234.469
 11
0.0859833
 21
231.22
  0
LINE
  8
0
 10
0.0859833
 20
231.22
 11
0.0195923
 21
227.969
  0
LINE
  8
0
 10
0.0195923
 20
227.969
 11
0.000183105
 21
224.717
  0
LINE
  8
0
 10
0.000183105
 20
224.717
 11
0.027771
 21
221.466
  0
LINE
  8
0
 10
0.027771
 20
221.466
 11
0.102325
 21
218.215
  0
LINE
  8
0
 10
0.102325
 20
218.215
 11
0.223862
 21
214.966
  0
LINE
  8
0
 10
0.223862
 20
214.966
 11
0.392334
 21
211.719
  0
LINE
  8
0
 10
0.392334
 20
211.719
 11
0.607712
 21
208.474
  0
LINE
  8
0
 10
0.607712
 20
208.474
 11
0.869949
 21
205.233
  0
LINE
  8
0
 10
0.869949
 20
205.233
 11
1.17899
 21
201.997
  0
LINE
  8
0
 10
1.17899
 20
201.997
 11
1.53477
 21
198.765
  0
LINE
  8
0
 10
1.53477
 20
198.765
 11
1.93724
 21
195.538
  0
LINE
  8
0
 10
1.93724
 20
195.538
 11
2.38628
 21
192.318
  0
LINE
  8
0
 10
2.38628
 20
192.318
 11
2.88181
 21
189.104
  0
LINE
  8
0
 10
2.88181
 20
189.104
 11
3.42372
 21
185.898
  0
LINE
  8
0
 10
3.42372
 20
185.898
 11
4.01192
 21
182.7
  0
LINE
  8
0
 10
4.01192
 20
182.7
 11
4.64626
 21
179.511
  0
LINE
  8
0
 10
4.64626
 20
179.511
 11
5.32661
 21
176.332
  0
LINE
  8
0
 10
5.32661
 20
176.332
 11
6.05284
 21
173.162
  0
LINE
  8
0
 10
6.05284
 20
173.162
 11
6.8248
 21
170.004
  0
LINE
  8
0
 10
6.8248
 20
170.004
 11
7.64232
 21
166.857
  0
LINE
  8
0
 10
7.64232
 20
166.857
 11
8.50523
 21
163.722
  0
LINE
  8
0
 10
8.50523
 20
163.722
 11
9.41336
 21
160.6
  0
LINE
  8
0
 10
9.41336
 20
160.6
 11
10.3665
 21
157.491
  0
LINE
  8
0
 10
10.3665
 20
157.491
 11
11.3645
 21
154.396
  0
LINE
  8
0
 10
11.3645
 20
154.396
 11
12.4071
 21
151.317
  0
LINE
  8
0
 10
12.4071
 20
151.317
 11
13.494
 21
148.252
  0
LINE
  8
0
 10
13.494
 20
148.252
 11
14.6252
 21
145.204
  0
LINE
  8
0
 10
14.6252
 20
145.204
 11
15.8003
 21
142.172
  0
LINE
  8
0
 10
15.8003
 20
142.172
 11
17.0191
 21
139.158
  0
LINE
  8
0
 10
17.0191
 20
139.158
 11
18.2813
 21
136.161
  0
LINE
  8
0
 10
18.2813
 20
136.161
 11
19.5867
 21
133.183
  0
LINE
  8
0
 10
19.5867
 20
133.183
 11
20.935
 21
130.224
  0
LINE
  8
0
 10
20.935
 20
130.224
 11
22.3259
 21
127.285
  0
LINE
  8
0
 10
22.3259
 20
127.285
 11
23.7591
 21
124.367
  0
LINE
  8
0
 10
23.7591
 20
124.367
 11
25.2343
 21
121.469
  0
LINE
  8
0
 10
25.2343
 20
121.469
 11
26.7513
 21
118.593
  0
LINE
  8
0
 10
26.7513
 20
118.593
 11
28.3097
 21
115.739
  0
LINE
  8
0
 10
28.3097
 20
115.739
 11
29.9091
 21
112.908
  0
LINE
  8
0
 10
29.9091
 20
112.908
 11
31.5493
 21
110.101
  0
LINE
  8
0
 10
31.5493
 20
110.101
 11
33.2299
 21
107.317
  0
LINE
  8
0
 10
33.2299
 20
107.317
 11
34.9505
 21
104.558
  0
LINE
  8
0
 10
34.9505
 20
104.558
 11
36.7108
 21
101.825
  0
LINE
  8
0
 10
36.7108
 20
101.825
 11
38.5105
 21
99.1165
  0
LINE
  8
0
 10
38.5105
 20
99.1165
 11
40.3491
 21
96.4347
  0
LINE
  8
0
 10
40.3491
 20
96.4347
 11
42.2262
 21
93.7798
  0
LINE
  8
0
 10
42.2262
 20
93.7798
 11
44.1416
 21
91.1523
  0
LINE
  8
0
 10
44.1416
 20
91.1523
 11
46.0947
 21
88.5527
  0
LINE
  8
0
 10
46.0947
 20
88.5527
 11
48.0851
 21
85.9816
  0
LINE
  8
0
 10
48.0851
 20
85.9816
 11
50.1125
 21
83.4395
  0
LINE
  8
0
 10
50.1125
 20
83.4395
 11
52.1764
 21
80.9271
  0
LINE
  8
0
 10
52.1764
 20
80.9271
 11
54.2765
 21
78.4447
  0
LINE
  8
0
 10
54.2765
 20
78.4447
 11
56.4121
 21
75.9929
  0
LINE
  8
0
 10
56.4121
 20
75.9929
 11
58.583
 21
73.5722
  0
LINE
  8
0
 10
58.583
 20
73.5722
 11
60.7887
 21
71.1831
  0
LINE
  8
0
 10
60.7887
 20
71.1831
 11
63.0286
 21
68.8262
  0
LINE
  8
0
 10
63.0286
 20
68.8262
 11
65.3023
 21
66.5019
  0
LINE
  8
0
 10
65.3023
 20
66.5019
 11
67.6094
 21
64.2107
  0
LINE
  8
0
 10
67.6094
 20
64.2107
 11
69.9494
 21
61.953
  0
LINE
  8
0
 10
69.9494
 20
61.953
 11
72.3217
 21
59.7295
  0
LINE
  8
0
 10
72.3217
 20
59.7295
 11
74.726
 21
57.5404
  0
LINE
  8
0
 10
74.726
 20
57.5404
 11
77.1616
 21
55.3863
  0
LINE
  8
0
 10
77.1616
 20
55.3863
 11
79.6281
 21
53.2676
  0
LINE
  8
0
 10
79.6281
 20
53.2676
 11
82.125
 21
51.1848
  0
LINE
  8
0
 10
82.125
 20
51.1848
 11
84.6517
 21
49.1383
  0
LINE
  8
0
 10
84.6517
 20
49.1383
 11
87.2077
 21
47.1285
  0
LINE
  8
0
 10
87.2077
 20
47.1285
 11
89.7924
 21
45.1559
  0
LINE
  8
0
 10
89.7924
 20
45.1559
 11
92.4054
 21
43.2208
  0
LINE
  8
0
 10
92.4054
 20
43.2208
 11
95.0461
 21
41.3237
  0
LINE
  8
0
 10
95.0461
 20
41.3237
 11
97.714
 21
39.4649
  0
LINE
  8
0
 10
97.714
 20
39.4649
 11
100.408
 21
37.6449
  0
LINE
  8
0
 10
100.408
 20
37.6449
 11
103.129
 21
35.864
  0
LINE
  8
0
 10
103.129
 20
35.864
 11
105.875
 21
34.1226
  0
LINE
  8
0
 10
105.875
 20
34.1226
 11
108.646
 21
32.4211
  0
LINE
  8
0
 10
108.646
 20
32.4211
 11
111.441
 21
30.7598
  0
LINE
  8
0
 10
111.441
 20
30.7598
 11
114.259
 21
29.139
  0
LINE
  8
0
 10
114.259
 20
29.139
 11
117.101
 21
27.5592
  0
LINE
  8
0
 10
117.101
 20
27.5592
 11
119.966
 21
26.0206
  0
LINE
  8
0
 10
119.966
 20
26.0206
 11
122.852
 21
24.5235
  0
LINE
  8
0
 10
122.852
 20
24.5235
 11
125.76
 21
23.0684
  0
LINE
  8
0
 10
125.76
 20
23.0684
 11
128.688
 21
21.6553
  0
LINE
  8
0
 10
128.688
 20
21.6553
 11
131.637
 21
20.2848
  0
LINE
  8
0
 10
131.637
 20
20.2848
 11
134.605
 21
18.957
  0
LINE
  8
0
 10
134.605
 20
18.957
 11
137.592
 21
17.6722
  0
LINE
  8
0
 10
137.592
 20
17.6722
 11
140.597
 21
16.4307
  0
LINE
  8
0
 10
140.597
 20
16.4307
 11
143.62
 21
15.2328
  0
LINE
  8
0
 10
143.62
 20
15.2328
 11
146.66
 21
14.0787
  0
LINE
  8
0
 10
146.66
 20
14.0787
 11
149.716
 21
12.9687
  0
LINE
  8
0
 10
149.716
 20
12.9687
 11
152.788
 21
11.9029
  0
LINE
  8
0
 10
152.788
 20
11.9029
 11
155.875
 21
10.8816
  0
LINE
  8
0
 10
155.875
 20
10.8816
 11
158.976
 21
9.90506
  0
LINE
  8
0
 10
158.976
 20
9.90506
 11
162.091
 21
8.97342
  0
LINE
  8
0
 10
162.091
 20
8.97342
 11
165.22
 21
8.08688
  0
LINE
  8
0
 10
165.22
 20
8.08688
 11
168.36
 21
7.24567
  0
LINE
  8
0
 10
168.36
 20
7.24567
 11
171.513
 21
6.44991
  0
LINE
  8
0
 10
171.513
 20
6.44991
 11
174.677
 21
5.6998
  0
LINE
  8
0
 10
174.677
 20
5.6998
 11
177.851
 21
4.99548
  0
LINE
  8
0
 10
177.851
 20
4.99548
 11
181.035
 21
4.33713
  0
LINE
  8
0
 10
181.035
 20
4.33713
 11
184.229
 21
3.72484
  0
LINE
  8
0
 10
184.229
 20
3.72484
 11
187.431
 21
3.15877
  0
LINE
  8
0
 10
187.431
 20
3.15877
 11
190.64
 21
2.63902
  0
LINE
  8
0
 10
190.64
 20
2.63902
 11
193.857
 21
2.16571
  0
LINE
  8
0
 10
193.857
 20
2.16571
 11
197.081
 21
1.73894
  0
LINE
  8
0
 10
197.081
 20
1.73894
 11
200.31
 21
1.3588
  0
LINE
  8
0
 10
200.31
 20
1.3588
 11
203.544
 21
1.02534
  0
LINE
  8
0
 10
203.544
 20
1.02534
 11
206.783
 21
0.738678
  0
LINE
  8
0
 10
206.783
 20
0.738678
 11
210.026
 21
0.498856
  0
LINE
  8
0
 10
210.026
 20
0.498856
 11
213.271
 21
0.305908
  0
LINE
  8
0
 10
213.271
 20
0.305908
 11
216.52
 21
0.159882
  0
LINE
  8
0
 10
216.52
 20
0.159882
 11
219.77
 21
0.0608063
  0
LINE
  8
0
 10
219.77
 20
0.0608063
 11
222.031
 21
0.0195923
  0
LINE
  8
0
 10
222.031
 20
0.0195923
 11
225.283
 21
0.000183105
  0
LINE
  8
0
 10
225.283
 20
0.000183105
 11
228.534
 21
0.027771
  0
LINE
  8
0
 10
193.5
 20
458.5
 11
193.5
 21
471.5
  0
LINE
  8
0
 10
193.5
 20
471.5
 11
206.5
 21
471.5
  0
LINE
  8
0
 10
206.5
 20
471.5
 11
206.5
 21
458.5
  0
LINE
  8
0
 10
206.5
 20
458.5
 11
193.5
 21
458.5
  0
LINE
  8
0
 10
243.5
 20
458.5
 11
243.5
 21
471.5
  0
LINE
  8
0
 10
243.5
 20
471.5
 11
256.5
 21
471.5
  0
LINE
  8
0
 10
256.5
 20
471.5
 11
256.5
 21
458.5
  0
LINE
  8
0
 10
256.5
 20
458.5
 11
243.5
 21
458.5
  0
ENDSEC
  0
SECTION
  2
OBJECTS
  0
DICTIONARY
  0
ENDSEC
  0
EOF
