  0
SECTION
  2
BLOCKS
  0
ENDSEC
  0
SECTION
  2
ENTITIES
  0
LINE
  8
0
 10
600
 20
450
 11
200
 21
450
  0
LINE
  8
0
 10
200
 20
450
 11
150
 21
400
  0
LINE
  8
0
 10
150
 20
400
 11
150
 21
300
  0
LINE
  8
0
 10
150
 20
300
 11
0
 21
300
  0
LINE
  8
0
 10
0
 20
300
 11
0
 21
150
  0
LINE
  8
0
 10
0
 20
150
 11
150
 21
150
  0
LINE
  8
0
 10
150
 20
150
 11
150
 21
50
  0
LINE
  8
0
 10
150
 20
50
 11
200
 21
0
  0
LINE
  8
0
 10
200
 20
0
 11
600
 21
0
  0
LINE
  8
0
 10
600
 20
0
 11
750
 21
75
  0
LINE
  8
0
 10
750
 20
75
 11
750
 21
375
  0
LINE
  8
0
 10
750
 20
375
 11
600
 21
450
  0
LINE
  8
0
 10
209.112
 20
383.561
 11
208.899
 21
383.594
  0
LINE
  8
0
 10
208.899
 20
383.594
 11
208.245
 21
383.741
  0
LINE
  8
0
 10
208.245
 20
383.741
 11
207.486
 21
384.006
  0
LINE
  8
0
 10
207.486
 20
384.006
 11
206.712
 21
384.393
  0
LINE
  8
0
 10
206.712
 20
384.393
 11
206.153
 21
384.761
  0
LINE
  8
0
 10
206.153
 20
384.761
 11
205.568
 21
385.245
  0
LINE
  8
0
 10
205.568
 20
385.245
 11
204.749
 21
386.169
  0
LINE
  8
0
 10
204.749
 20
386.169
 11
204.286
 21
386.901
  0
LINE
  8
0
 10
204.286
 20
386.901
 11
203.949
 21
387.626
  0
LINE
  8
0
 10
203.949
 20
387.626
 11
203.681
 21
388.479
  0
LINE
  8
0
 10
203.681
 20
388.479
 11
203.561
 21
389.112
  0
LINE
  8
0
 10
203.561
 20
389.112
 11
203.5
 21
390.012
  0
LINE
  8
0
 10
203.5
 20
390.012
 11
203.594
 21
391.101
  0
LINE
  8
0
 10
203.594
 20
391.101
 11
203.741
 21
391.755
  0
LINE
  8
0
 10
203.741
 20
391.755
 11
204.006
 21
392.514
  0
LINE
  8
0
 10
204.006
 20
392.514
 11
204.393
 21
393.288
  0
LINE
  8
0
 10
204.393
 20
393.288
 11
204.761
 21
393.847
  0
LINE
  8
0
 10
204.761
 20
393.847
 11
205.245
 21
394.432
  0
LINE
  8
0
 10
205.245
 20
394.432
 11
206.169
 21
395.251
  0
LINE
  8
0
 10
206.169
 20
395.251
 11
206.944
 21
395.737
  0
LINE
  8
0
 10
206.944
 20
395.737
 11
207.871
 21
396.142
  0
LINE
  8
0
 10
207.871
 20
396.142
 11
208.919
 21
396.409
  0
LINE
  8
0
 10
208.919
 20
396.409
 11
209.596
 21
396.487
  0
LINE
  8
0
 10
209.596
 20
396.487
 11
211.101
 21
396.406
  0
LINE
  8
0
 10
211.101
 20
396.406
 11
211.755
 21
396.259
  0
LINE
  8
0
 10
211.755
 20
396.259
 11
212.514
 21
395.994
  0
LINE
  8
0
 10
212.514
 20
395.994
 11
213.288
 21
395.607
  0
LINE
  8
0
 10
213.288
 20
395.607
 11
213.847
 21
395.239
  0
LINE
  8
0
 10
213.847
 20
395.239
 11
214.432
 21
394.755
  0
LINE
  8
0
 10
214.432
 20
394.755
 11
215.251
 21
393.831
  0
LINE
  8
0
 10
215.251
 20
393.831
 11
215.737
 21
393.056
  0
LINE
  8
0
 10
215.737
 20
393.056
 11
216.142
 21
392.129
  0
LINE
  8
0
 10
216.142
 20
392.129
 11
216.409
 21
391.081
  0
LINE
  8
0
 10
216.409
 20
391.081
 11
216.487
 21
390.404
  0
LINE
  8
0
 10
216.487
 20
390.404
 11
216.406
 21
388.899
  0
LINE
  8
0
 10
216.406
 20
388.899
 11
216.259
 21
388.245
  0
LINE
  8
0
 10
216.259
 20
388.245
 11
215.994
 21
387.486
  0
LINE
  8
0
 10
215.994
 20
387.486
 11
215.607
 21
386.712
  0
LINE
  8
0
 10
215.607
 20
386.712
 11
215.239
 21
386.153
  0
LINE
  8
0
 10
215.239
 20
386.153
 11
214.755
 21
385.568
  0
LINE
  8
0
 10
214.755
 20
385.568
 11
213.831
 21
384.749
  0
LINE
  8
0
 10
213.831
 20
384.749
 11
213.056
 21
384.263
  0
LINE
  8
0
 10
213.056
 20
384.263
 11
212.129
 21
383.858
  0
LINE
  8
0
 10
212.129
 20
383.858
 11
211.081
 21
383.591
  0
LINE
  8
0
 10
211.081
 20
383.591
 11
210.404
 21
383.513
  0
LINE
  8
0
 10
210.404
 20
383.513
 11
209.112
 21
383.561
  0
LINE
  8
0
 10
209.112
 20
53.5609
 11
208.899
 21
53.594
  0
LINE
  8
0
 10
208.899
 20
53.594
 11
208.245
 21
53.7413
  0
LINE
  8
0
 10
208.245
 20
53.7413
 11
207.486
 21
54.0058
  0
LINE
  8
0
 10
207.486
 20
54.0058
 11
206.712
 21
54.3927
  0
LINE
  8
0
 10
206.712
 20
54.3927
 11
206.153
 21
54.7607
  0
LINE
  8
0
 10
206.153
 20
54.7607
 11
205.568
 21
55.2449
  0
LINE
  8
0
 10
205.568
 20
55.2449
 11
204.749
 21
56.1695
  0
LINE
  8
0
 10
204.749
 20
56.1695
 11
204.286
 21
56.9008
  0
LINE
  8
0
 10
204.286
 20
56.9008
 11
203.949
 21
57.6262
  0
LINE
  8
0
 10
203.949
 20
57.6262
 11
203.681
 21
58.4786
  0
LINE
  8
0
 10
203.681
 20
58.4786
 11
203.561
 21
59.1124
  0
LINE
  8
0
 10
203.561
 20
59.1124
 11
203.5
 21
60.0122
  0
LINE
  8
0
 10
203.5
 20
60.0122
 11
203.594
 21
61.1014
  0
LINE
  8
0
 10
203.594
 20
61.1014
 11
203.741
 21
61.7545
  0
LINE
  8
0
 10
203.741
 20
61.7545
 11
204.006
 21
62.5138
  0
LINE
  8
0
 10
204.006
 20
62.5138
 11
204.393
 21
63.2876
  0
LINE
  8
0
 10
204.393
 20
63.2876
 11
204.761
 21
63.847
  0
LINE
  8
0
 10
204.761
 20
63.847
 11
205.245
 21
64.4317
  0
LINE
  8
0
 10
205.245
 20
64.4317
 11
206.169
 21
65.2514
  0
LINE
  8
0
 10
206.169
 20
65.2514
 11
206.944
 21
65.7368
  0
LINE
  8
0
 10
206.944
 20
65.7368
 11
207.871
 21
66.1416
  0
LINE
  8
0
 10
207.871
 20
66.1416
 11
208.919
 21
66.4094
  0
LINE
  8
0
 10
208.919
 20
66.4094
 11
209.596
 21
66.4874
  0
LINE
  8
0
 10
209.596
 20
66.4874
 11
211.101
 21
66.406
  0
LINE
  8
0
 10
211.101
 20
66.406
 11
211.755
 21
66.2587
  0
LINE
  8
0
 10
211.755
 20
66.2587
 11
212.514
 21
65.9942
  0
LINE
  8
0
 10
212.514
 20
65.9942
 11
213.288
 21
65.6073
  0
LINE
  8
0
 10
213.288
 20
65.6073
 11
213.847
 21
65.2393
  0
LINE
  8
0
 10
213.847
 20
65.2393
 11
214.432
 21
64.755
  0
LINE
  8
0
 10
214.432
 20
64.755
 11
215.251
 21
63.8305
  0
LINE
  8
0
 10
215.251
 20
63.8305
 11
215.737
 21
63.056
  0
LINE
  8
0
 10
215.737
 20
63.056
 11
216.142
 21
62.1286
  0
LINE
  8
0
 10
216.142
 20
62.1286
 11
216.409
 21
61.0813
  0
LINE
  8
0
 10
216.409
 20
61.0813
 11
216.487
 21
60.4041
  0
LINE
  8
0
 10
216.487
 20
60.4041
 11
216.406
 21
58.8985
  0
LINE
  8
0
 10
216.406
 20
58.8985
 11
216.259
 21
58.2455
  0
LINE
  8
0
 10
216.259
 20
58.2455
 11
215.994
 21
57.4862
  0
LINE
  8
0
 10
215.994
 20
57.4862
 11
215.607
 21
56.7123
  0
LINE
  8
0
 10
215.607
 20
56.7123
 11
215.239
 21
56.153
  0
LINE
  8
0
 10
215.239
 20
56.153
 11
214.755
 21
55.5683
  0
LINE
  8
0
 10
214.755
 20
55.5683
 11
213.831
 21
54.7486
  0
LINE
  8
0
 10
213.831
 20
54.7486
 11
213.056
 21
54.2632
  0
LINE
  8
0
 10
213.056
 20
54.2632
 11
212.129
 21
53.8584
  0
LINE
  8
0
 10
212.129
 20
53.8584
 11
211.081
 21
53.5906
  0
LINE
  8
0
 10
211.081
 20
53.5906
 11
210.404
 21
53.5126
  0
LINE
  8
0
 10
210.404
 20
53.5126
 11
209.112
 21
53.5609
  0
ENDSEC
  0
SECTION
  2
OBJECTS
  0
DICTIONARY
  0
ENDSEC
  0
EOF
