  0
SECTION
  2
BLOCKS
  0
ENDSEC
  0
SECTION
  2
ENTITIES
  0
LINE
  8
0
 10
98.1763
 20
3.67078
 11
112.5
 21
10.0481
  0
LINE
  8
0
 10
112.5
 20
10.0481
 11
125.185
 21
19.2641
  0
LINE
  8
0
 10
125.185
 20
19.2641
 11
135.676
 21
30.9161
  0
LINE
  8
0
 10
135.676
 20
30.9161
 11
143.516
 21
44.4948
  0
LINE
  8
0
 10
143.516
 20
44.4948
 11
148.361
 21
59.4066
  0
LINE
  8
0
 10
148.361
 20
59.4066
 11
150
 21
75
  0
LINE
  8
0
 10
150
 20
75
 11
148.361
 21
90.5934
  0
LINE
  8
0
 10
148.361
 20
90.5934
 11
143.516
 21
105.505
  0
LINE
  8
0
 10
143.516
 20
105.505
 11
135.676
 21
119.084
  0
LINE
  8
0
 10
135.676
 20
119.084
 11
127.063
 21
128.65
  0
LINE
  8
0
 10
127.063
 20
128.65
 11
127.848
 21
129.553
  0
LINE
  8
0
 10
127.848
 20
129.553
 11
129.064
 21
131.748
  0
LINE
  8
0
 10
129.064
 20
131.748
 11
129.798
 21
134.147
  0
LINE
  8
0
 10
129.798
 20
134.147
 11
130.016
 21
136.646
  0
LINE
  8
0
 10
130.016
 20
136.646
 11
129.711
 21
139.136
  0
LINE
  8
0
 10
129.711
 20
139.136
 11
128.894
 21
141.508
  0
LINE
  8
0
 10
128.894
 20
141.508
 11
127.602
 21
143.658
  0
LINE
  8
0
 10
127.602
 20
143.658
 11
125.891
 21
145.493
  0
LINE
  8
0
 10
125.891
 20
145.493
 11
123.836
 21
146.932
  0
LINE
  8
0
 10
123.836
 20
146.932
 11
121.527
 21
147.912
  0
LINE
  8
0
 10
121.527
 20
147.912
 11
119.064
 21
148.391
  0
LINE
  8
0
 10
119.064
 20
148.391
 11
116.556
 21
148.347
  0
LINE
  8
0
 10
116.556
 20
148.347
 11
114.111
 21
147.783
  0
LINE
  8
0
 10
114.111
 20
147.783
 11
111.838
 21
146.722
  0
LINE
  8
0
 10
111.838
 20
146.722
 11
109.834
 21
145.213
  0
LINE
  8
0
 10
109.834
 20
145.213
 11
108.188
 21
143.319
  0
LINE
  8
0
 10
108.188
 20
143.319
 11
107.545
 21
142.158
  0
LINE
  8
0
 10
107.545
 20
142.158
 11
98.1763
 21
146.329
  0
LINE
  8
0
 10
98.1763
 20
146.329
 11
82.8396
 21
149.589
  0
LINE
  8
0
 10
82.8396
 20
149.589
 11
67.1604
 21
149.589
  0
LINE
  8
0
 10
67.1604
 20
149.589
 11
51.8237
 21
146.329
  0
LINE
  8
0
 10
51.8237
 20
146.329
 11
42.4553
 21
142.158
  0
LINE
  8
0
 10
42.4553
 20
142.158
 11
41.8116
 21
143.319
  0
LINE
  8
0
 10
41.8116
 20
143.319
 11
40.1658
 21
145.213
  0
LINE
  8
0
 10
40.1658
 20
145.213
 11
38.1622
 21
146.722
  0
LINE
  8
0
 10
38.1622
 20
146.722
 11
35.8886
 21
147.783
  0
LINE
  8
0
 10
35.8886
 20
147.783
 11
33.4442
 21
148.347
  0
LINE
  8
0
 10
33.4442
 20
148.347
 11
30.9359
 21
148.391
  0
LINE
  8
0
 10
30.9359
 20
148.391
 11
28.4733
 21
147.912
  0
LINE
  8
0
 10
28.4733
 20
147.912
 11
26.1641
 21
146.932
  0
LINE
  8
0
 10
26.1641
 20
146.932
 11
24.1091
 21
145.493
  0
LINE
  8
0
 10
24.1091
 20
145.493
 11
22.3981
 21
143.658
  0
LINE
  8
0
 10
22.3981
 20
143.658
 11
21.1061
 21
141.508
  0
LINE
  8
0
 10
21.1061
 20
141.508
 11
20.2893
 21
139.136
  0
LINE
  8
0
 10
20.2893
 20
139.136
 11
19.9836
 21
136.646
  0
LINE
  8
0
 10
19.9836
 20
136.646
 11
20.2023
 21
134.147
  0
LINE
  8
0
 10
20.2023
 20
134.147
 11
20.9357
 21
131.748
  0
LINE
  8
0
 10
20.9357
 20
131.748
 11
22.1519
 21
129.553
  0
LINE
  8
0
 10
22.1519
 20
129.553
 11
22.9372
 21
128.65
  0
LINE
  8
0
 10
22.9372
 20
128.65
 11
14.3237
 21
119.084
  0
LINE
  8
0
 10
14.3237
 20
119.084
 11
6.4841
 21
105.505
  0
LINE
  8
0
 10
6.4841
 20
105.505
 11
1.63893
 21
90.5934
  0
LINE
  8
0
 10
1.63893
 20
90.5934
 11
0
 21
75
  0
LINE
  8
0
 10
0
 20
75
 11
1.63893
 21
59.4066
  0
LINE
  8
0
 10
1.63893
 20
59.4066
 11
6.4841
 21
44.4948
  0
LINE
  8
0
 10
6.4841
 20
44.4948
 11
14.3237
 21
30.9161
  0
LINE
  8
0
 10
14.3237
 20
30.9161
 11
24.8152
 21
19.2641
  0
LINE
  8
0
 10
24.8152
 20
19.2641
 11
37.5
 21
10.0481
  0
LINE
  8
0
 10
37.5
 20
10.0481
 11
51.8237
 21
3.67078
  0
LINE
  8
0
 10
51.8237
 20
3.67078
 11
67.1604
 21
0.410858
  0
LINE
  8
0
 10
67.1604
 20
0.410858
 11
82.8396
 21
0.410858
  0
LINE
  8
0
 10
82.8396
 20
0.410858
 11
98.1763
 21
3.67078
  0
LINE
  8
0
 10
29.2972
 20
131.07
 11
27.7003
 21
132.233
  0
LINE
  8
0
 10
27.7003
 20
132.233
 11
26.5674
 21
133.851
  0
LINE
  8
0
 10
26.5674
 20
133.851
 11
26.0213
 21
135.749
  0
LINE
  8
0
 10
26.0213
 20
135.749
 11
26.121
 21
137.722
  0
LINE
  8
0
 10
26.121
 20
137.722
 11
26.8559
 21
139.555
  0
LINE
  8
0
 10
26.8559
 20
139.555
 11
28.1462
 21
141.05
  0
LINE
  8
0
 10
28.1462
 20
141.05
 11
29.8522
 21
142.046
  0
LINE
  8
0
 10
29.8522
 20
142.046
 11
31.7889
 21
142.433
  0
LINE
  8
0
 10
31.7889
 20
142.433
 11
33.7465
 21
142.171
  0
LINE
  8
0
 10
33.7465
 20
142.171
 11
35.5129
 21
141.287
  0
LINE
  8
0
 10
35.5129
 20
141.287
 11
36.8967
 21
139.878
  0
LINE
  8
0
 10
36.8967
 20
139.878
 11
37.7478
 21
138.096
  0
LINE
  8
0
 10
37.7478
 20
138.096
 11
37.9741
 21
136.133
  0
LINE
  8
0
 10
37.9741
 20
136.133
 11
37.5511
 21
134.204
  0
LINE
  8
0
 10
37.5511
 20
134.204
 11
36.5245
 21
132.517
  0
LINE
  8
0
 10
36.5245
 20
132.517
 11
35.0056
 21
131.254
  0
LINE
  8
0
 10
35.0056
 20
131.254
 11
33.1591
 21
130.553
  0
LINE
  8
0
 10
33.1591
 20
130.553
 11
31.185
 21
130.49
  0
LINE
  8
0
 10
31.185
 20
130.49
 11
29.2972
 21
131.07
  0
LINE
  8
0
 10
115.889
 20
130.827
 11
114.183
 21
131.822
  0
LINE
  8
0
 10
114.183
 20
131.822
 11
112.892
 21
133.318
  0
LINE
  8
0
 10
112.892
 20
133.318
 11
112.157
 21
135.151
  0
LINE
  8
0
 10
112.157
 20
135.151
 11
112.058
 21
137.124
  0
LINE
  8
0
 10
112.058
 20
137.124
 11
112.604
 21
139.022
  0
LINE
  8
0
 10
112.604
 20
139.022
 11
113.737
 21
140.64
  0
LINE
  8
0
 10
113.737
 20
140.64
 11
115.334
 21
141.802
  0
LINE
  8
0
 10
115.334
 20
141.802
 11
117.221
 21
142.383
  0
LINE
  8
0
 10
117.221
 20
142.383
 11
119.196
 21
142.32
  0
LINE
  8
0
 10
119.196
 20
142.32
 11
121.042
 21
141.619
  0
LINE
  8
0
 10
121.042
 20
141.619
 11
122.561
 21
140.356
  0
LINE
  8
0
 10
122.561
 20
140.356
 11
123.587
 21
138.669
  0
LINE
  8
0
 10
123.587
 20
138.669
 11
124.011
 21
136.739
  0
LINE
  8
0
 10
124.011
 20
136.739
 11
123.784
 21
134.777
  0
LINE
  8
0
 10
123.784
 20
134.777
 11
122.933
 21
132.995
  0
LINE
  8
0
 10
122.933
 20
132.995
 11
121.549
 21
131.586
  0
LINE
  8
0
 10
121.549
 20
131.586
 11
119.783
 21
130.702
  0
LINE
  8
0
 10
119.783
 20
130.702
 11
117.825
 21
130.439
  0
LINE
  8
0
 10
117.825
 20
130.439
 11
115.889
 21
130.827
  0
ENDSEC
  0
SECTION
  2
OBJECTS
  0
DICTIONARY
  0
ENDSEC
  0
EOF
