  0
SECTION
  2
BLOCKS
  0
ENDSEC
  0
SECTION
  2
ENTITIES
  0
LINE
  8
0
 10
163.627
 20
6.11795
 11
187.5
 21
16.7468
  0
LINE
  8
0
 10
187.5
 20
16.7468
 11
208.641
 21
32.1069
  0
LINE
  8
0
 10
208.641
 20
32.1069
 11
226.127
 21
51.5269
  0
LINE
  8
0
 10
226.127
 20
51.5269
 11
239.193
 21
74.1579
  0
LINE
  8
0
 10
239.193
 20
74.1579
 11
247.268
 21
99.011
  0
LINE
  8
0
 10
247.268
 20
99.011
 11
250
 21
125
  0
LINE
  8
0
 10
250
 20
125
 11
247.268
 21
150.989
  0
LINE
  8
0
 10
247.268
 20
150.989
 11
239.193
 21
175.842
  0
LINE
  8
0
 10
239.193
 20
175.842
 11
226.127
 21
198.473
  0
LINE
  8
0
 10
226.127
 20
198.473
 11
208.641
 21
217.893
  0
LINE
  8
0
 10
208.641
 20
217.893
 11
205.951
 21
219.848
  0
LINE
  8
0
 10
205.951
 20
219.848
 11
206.527
 21
220.511
  0
LINE
  8
0
 10
206.527
 20
220.511
 11
207.743
 21
222.705
  0
LINE
  8
0
 10
207.743
 20
222.705
 11
208.477
 21
225.104
  0
LINE
  8
0
 10
208.477
 20
225.104
 11
208.695
 21
227.603
  0
LINE
  8
0
 10
208.695
 20
227.603
 11
208.389
 21
230.093
  0
LINE
  8
0
 10
208.389
 20
230.093
 11
207.573
 21
232.465
  0
LINE
  8
0
 10
207.573
 20
232.465
 11
206.281
 21
234.616
  0
LINE
  8
0
 10
206.281
 20
234.616
 11
204.57
 21
236.451
  0
LINE
  8
0
 10
204.57
 20
236.451
 11
202.515
 21
237.889
  0
LINE
  8
0
 10
202.515
 20
237.889
 11
200.206
 21
238.87
  0
LINE
  8
0
 10
200.206
 20
238.87
 11
197.743
 21
239.348
  0
LINE
  8
0
 10
197.743
 20
239.348
 11
195.235
 21
239.305
  0
LINE
  8
0
 10
195.235
 20
239.305
 11
192.79
 21
238.74
  0
LINE
  8
0
 10
192.79
 20
238.74
 11
190.517
 21
237.68
  0
LINE
  8
0
 10
190.517
 20
237.68
 11
188.513
 21
236.17
  0
LINE
  8
0
 10
188.513
 20
236.17
 11
186.867
 21
234.277
  0
LINE
  8
0
 10
186.867
 20
234.277
 11
186.537
 21
233.682
  0
LINE
  8
0
 10
186.537
 20
233.682
 11
163.627
 21
243.882
  0
LINE
  8
0
 10
163.627
 20
243.882
 11
138.066
 21
249.315
  0
LINE
  8
0
 10
138.066
 20
249.315
 11
111.934
 21
249.315
  0
LINE
  8
0
 10
111.934
 20
249.315
 11
86.3729
 21
243.882
  0
LINE
  8
0
 10
86.3729
 20
243.882
 11
63.4627
 21
233.682
  0
LINE
  8
0
 10
63.4627
 20
233.682
 11
63.1328
 21
234.277
  0
LINE
  8
0
 10
63.1328
 20
234.277
 11
61.4869
 21
236.17
  0
LINE
  8
0
 10
61.4869
 20
236.17
 11
59.4834
 21
237.68
  0
LINE
  8
0
 10
59.4834
 20
237.68
 11
57.2098
 21
238.74
  0
LINE
  8
0
 10
57.2098
 20
238.74
 11
54.7654
 21
239.305
  0
LINE
  8
0
 10
54.7654
 20
239.305
 11
52.2571
 21
239.348
  0
LINE
  8
0
 10
52.2571
 20
239.348
 11
49.7945
 21
238.87
  0
LINE
  8
0
 10
49.7945
 20
238.87
 11
47.4852
 21
237.889
  0
LINE
  8
0
 10
47.4852
 20
237.889
 11
45.4303
 21
236.451
  0
LINE
  8
0
 10
45.4303
 20
236.451
 11
43.7193
 21
234.616
  0
LINE
  8
0
 10
43.7193
 20
234.616
 11
42.4273
 21
232.465
  0
LINE
  8
0
 10
42.4273
 20
232.465
 11
41.6105
 21
230.093
  0
LINE
  8
0
 10
41.6105
 20
230.093
 11
41.3048
 21
227.603
  0
LINE
  8
0
 10
41.3048
 20
227.603
 11
41.5234
 21
225.104
  0
LINE
  8
0
 10
41.5234
 20
225.104
 11
42.2569
 21
222.705
  0
LINE
  8
0
 10
42.2569
 20
222.705
 11
43.4731
 21
220.511
  0
LINE
  8
0
 10
43.4731
 20
220.511
 11
44.0495
 21
219.848
  0
LINE
  8
0
 10
44.0495
 20
219.848
 11
41.3587
 21
217.893
  0
LINE
  8
0
 10
41.3587
 20
217.893
 11
23.8729
 21
198.473
  0
LINE
  8
0
 10
23.8729
 20
198.473
 11
10.8068
 21
175.842
  0
LINE
  8
0
 10
10.8068
 20
175.842
 11
2.73155
 21
150.989
  0
LINE
  8
0
 10
2.73155
 20
150.989
 11
0
 21
125
  0
LINE
  8
0
 10
0
 20
125
 11
2.73155
 21
99.011
  0
LINE
  8
0
 10
2.73155
 20
99.011
 11
10.8068
 21
74.1579
  0
LINE
  8
0
 10
10.8068
 20
74.1579
 11
23.8729
 21
51.5269
  0
LINE
  8
0
 10
23.8729
 20
51.5269
 11
41.3587
 21
32.1069
  0
LINE
  8
0
 10
41.3587
 20
32.1069
 11
62.5
 21
16.7468
  0
LINE
  8
0
 10
62.5
 20
16.7468
 11
86.3729
 21
6.11795
  0
LINE
  8
0
 10
86.3729
 20
6.11795
 11
111.934
 21
0.684769
  0
LINE
  8
0
 10
111.934
 20
0.684769
 11
138.066
 21
0.684769
  0
LINE
  8
0
 10
138.066
 20
0.684769
 11
163.627
 21
6.11795
  0
LINE
  8
0
 10
50.6184
 20
222.028
 11
49.0215
 21
223.191
  0
LINE
  8
0
 10
49.0215
 20
223.191
 11
47.8886
 21
224.808
  0
LINE
  8
0
 10
47.8886
 20
224.808
 11
47.3425
 21
226.707
  0
LINE
  8
0
 10
47.3425
 20
226.707
 11
47.4422
 21
228.679
  0
LINE
  8
0
 10
47.4422
 20
228.679
 11
48.1771
 21
230.513
  0
LINE
  8
0
 10
48.1771
 20
230.513
 11
49.4674
 21
232.008
  0
LINE
  8
0
 10
49.4674
 20
232.008
 11
51.1733
 21
233.003
  0
LINE
  8
0
 10
51.1733
 20
233.003
 11
53.1101
 21
233.391
  0
LINE
  8
0
 10
53.1101
 20
233.391
 11
55.0677
 21
233.129
  0
LINE
  8
0
 10
55.0677
 20
233.129
 11
56.8341
 21
232.245
  0
LINE
  8
0
 10
56.8341
 20
232.245
 11
58.2179
 21
230.835
  0
LINE
  8
0
 10
58.2179
 20
230.835
 11
59.069
 21
229.053
  0
LINE
  8
0
 10
59.069
 20
229.053
 11
59.2953
 21
227.091
  0
LINE
  8
0
 10
59.2953
 20
227.091
 11
58.8722
 21
225.162
  0
LINE
  8
0
 10
58.8722
 20
225.162
 11
57.8456
 21
223.474
  0
LINE
  8
0
 10
57.8456
 20
223.474
 11
56.3268
 21
222.212
  0
LINE
  8
0
 10
56.3268
 20
222.212
 11
54.4803
 21
221.511
  0
LINE
  8
0
 10
54.4803
 20
221.511
 11
52.5061
 21
221.447
  0
LINE
  8
0
 10
52.5061
 20
221.447
 11
50.6184
 21
222.028
  0
LINE
  8
0
 10
194.567
 20
221.785
 11
192.861
 21
222.78
  0
LINE
  8
0
 10
192.861
 20
222.78
 11
191.571
 21
224.275
  0
LINE
  8
0
 10
191.571
 20
224.275
 11
190.836
 21
226.109
  0
LINE
  8
0
 10
190.836
 20
226.109
 11
190.737
 21
228.081
  0
LINE
  8
0
 10
190.737
 20
228.081
 11
191.283
 21
229.98
  0
LINE
  8
0
 10
191.283
 20
229.98
 11
192.416
 21
231.597
  0
LINE
  8
0
 10
192.416
 20
231.597
 11
194.012
 21
232.76
  0
LINE
  8
0
 10
194.012
 20
232.76
 11
195.9
 21
233.341
  0
LINE
  8
0
 10
195.9
 20
233.341
 11
197.874
 21
233.277
  0
LINE
  8
0
 10
197.874
 20
233.277
 11
199.721
 21
232.576
  0
LINE
  8
0
 10
199.721
 20
232.576
 11
201.24
 21
231.314
  0
LINE
  8
0
 10
201.24
 20
231.314
 11
202.266
 21
229.626
  0
LINE
  8
0
 10
202.266
 20
229.626
 11
202.689
 21
227.697
  0
LINE
  8
0
 10
202.689
 20
227.697
 11
202.463
 21
225.735
  0
LINE
  8
0
 10
202.463
 20
225.735
 11
201.612
 21
223.953
  0
LINE
  8
0
 10
201.612
 20
223.953
 11
200.228
 21
222.543
  0
LINE
  8
0
 10
200.228
 20
222.543
 11
198.462
 21
221.659
  0
LINE
  8
0
 10
198.462
 20
221.659
 11
196.504
 21
221.397
  0
LINE
  8
0
 10
196.504
 20
221.397
 11
194.567
 21
221.785
  0
ENDSEC
  0
SECTION
  2
OBJECTS
  0
DICTIONARY
  0
ENDSEC
  0
EOF
