  0
SECTION
  2
BLOCKS
  0
ENDSEC
  0
SECTION
  2
ENTITIES
  0
LINE
  8
0
 10
229.078
 20
8.56512
 11
262.5
 21
23.4456
  0
LINE
  8
0
 10
262.5
 20
23.4456
 11
292.098
 21
44.9497
  0
LINE
  8
0
 10
292.098
 20
44.9497
 11
316.578
 21
72.1376
  0
LINE
  8
0
 10
316.578
 20
72.1376
 11
334.87
 21
103.821
  0
LINE
  8
0
 10
334.87
 20
103.821
 11
346.176
 21
138.615
  0
LINE
  8
0
 10
346.176
 20
138.615
 11
350
 21
175
  0
LINE
  8
0
 10
350
 20
175
 11
346.176
 21
211.385
  0
LINE
  8
0
 10
346.176
 20
211.385
 11
334.87
 21
246.179
  0
LINE
  8
0
 10
334.87
 20
246.179
 11
316.578
 21
277.862
  0
LINE
  8
0
 10
316.578
 20
277.862
 11
292.098
 21
305.05
  0
LINE
  8
0
 10
292.098
 20
305.05
 11
284.454
 21
310.604
  0
LINE
  8
0
 10
284.454
 20
310.604
 11
285.206
 21
311.469
  0
LINE
  8
0
 10
285.206
 20
311.469
 11
286.422
 21
313.663
  0
LINE
  8
0
 10
286.422
 20
313.663
 11
287.155
 21
316.062
  0
LINE
  8
0
 10
287.155
 20
316.062
 11
287.374
 21
318.561
  0
LINE
  8
0
 10
287.374
 20
318.561
 11
287.068
 21
321.051
  0
LINE
  8
0
 10
287.068
 20
321.051
 11
286.252
 21
323.423
  0
LINE
  8
0
 10
286.252
 20
323.423
 11
284.959
 21
325.573
  0
LINE
  8
0
 10
284.959
 20
325.573
 11
283.249
 21
327.408
  0
LINE
  8
0
 10
283.249
 20
327.408
 11
281.194
 21
328.847
  0
LINE
  8
0
 10
281.194
 20
328.847
 11
278.884
 21
329.827
  0
LINE
  8
0
 10
278.884
 20
329.827
 11
276.422
 21
330.306
  0
LINE
  8
0
 10
276.422
 20
330.306
 11
273.913
 21
330.262
  0
LINE
  8
0
 10
273.913
 20
330.262
 11
271.469
 21
329.698
  0
LINE
  8
0
 10
271.469
 20
329.698
 11
269.195
 21
328.638
  0
LINE
  8
0
 10
269.195
 20
328.638
 11
267.192
 21
327.128
  0
LINE
  8
0
 10
267.192
 20
327.128
 11
265.546
 21
325.235
  0
LINE
  8
0
 10
265.546
 20
325.235
 11
265.193
 21
324.598
  0
LINE
  8
0
 10
265.193
 20
324.598
 11
262.5
 21
326.554
  0
LINE
  8
0
 10
262.5
 20
326.554
 11
229.078
 21
341.435
  0
LINE
  8
0
 10
229.078
 20
341.435
 11
193.292
 21
349.041
  0
LINE
  8
0
 10
193.292
 20
349.041
 11
156.708
 21
349.041
  0
LINE
  8
0
 10
156.708
 20
349.041
 11
120.922
 21
341.435
  0
LINE
  8
0
 10
120.922
 20
341.435
 11
87.5
 21
326.554
  0
LINE
  8
0
 10
87.5
 20
326.554
 11
84.8069
 21
324.598
  0
LINE
  8
0
 10
84.8069
 20
324.598
 11
84.4539
 21
325.235
  0
LINE
  8
0
 10
84.4539
 20
325.235
 11
82.8081
 21
327.128
  0
LINE
  8
0
 10
82.8081
 20
327.128
 11
80.8046
 21
328.638
  0
LINE
  8
0
 10
80.8046
 20
328.638
 11
78.5309
 21
329.698
  0
LINE
  8
0
 10
78.5309
 20
329.698
 11
76.0866
 21
330.262
  0
LINE
  8
0
 10
76.0866
 20
330.262
 11
73.5783
 21
330.306
  0
LINE
  8
0
 10
73.5783
 20
330.306
 11
71.1157
 21
329.827
  0
LINE
  8
0
 10
71.1157
 20
329.827
 11
68.8064
 21
328.847
  0
LINE
  8
0
 10
68.8064
 20
328.847
 11
66.7514
 21
327.408
  0
LINE
  8
0
 10
66.7514
 20
327.408
 11
65.0405
 21
325.573
  0
LINE
  8
0
 10
65.0405
 20
325.573
 11
63.7484
 21
323.423
  0
LINE
  8
0
 10
63.7484
 20
323.423
 11
62.9317
 21
321.051
  0
LINE
  8
0
 10
62.9317
 20
321.051
 11
62.626
 21
318.561
  0
LINE
  8
0
 10
62.626
 20
318.561
 11
62.8446
 21
316.062
  0
LINE
  8
0
 10
62.8446
 20
316.062
 11
63.5781
 21
313.663
  0
LINE
  8
0
 10
63.5781
 20
313.663
 11
64.7943
 21
311.469
  0
LINE
  8
0
 10
64.7943
 20
311.469
 11
65.546
 21
310.604
  0
LINE
  8
0
 10
65.546
 20
310.604
 11
57.9021
 21
305.05
  0
LINE
  8
0
 10
57.9021
 20
305.05
 11
33.422
 21
277.862
  0
LINE
  8
0
 10
33.422
 20
277.862
 11
15.1295
 21
246.179
  0
LINE
  8
0
 10
15.1295
 20
246.179
 11
3.82417
 21
211.385
  0
LINE
  8
0
 10
3.82417
 20
211.385
 11
0
 21
175
  0
LINE
  8
0
 10
0
 20
175
 11
3.82417
 21
138.615
  0
LINE
  8
0
 10
3.82417
 20
138.615
 11
15.1295
 21
103.821
  0
LINE
  8
0
 10
15.1295
 20
103.821
 11
33.422
 21
72.1376
  0
LINE
  8
0
 10
33.422
 20
72.1376
 11
57.9021
 21
44.9497
  0
LINE
  8
0
 10
57.9021
 20
44.9497
 11
87.5
 21
23.4456
  0
LINE
  8
0
 10
87.5
 20
23.4456
 11
120.922
 21
8.56512
  0
LINE
  8
0
 10
120.922
 20
8.56512
 11
156.708
 21
0.958679
  0
LINE
  8
0
 10
156.708
 20
0.958679
 11
193.292
 21
0.958679
  0
LINE
  8
0
 10
193.292
 20
0.958679
 11
229.078
 21
8.56512
  0
LINE
  8
0
 10
71.9395
 20
312.986
 11
70.3427
 21
314.148
  0
LINE
  8
0
 10
70.3427
 20
314.148
 11
69.2098
 21
315.766
  0
LINE
  8
0
 10
69.2098
 20
315.766
 11
68.6636
 21
317.664
  0
LINE
  8
0
 10
68.6636
 20
317.664
 11
68.7634
 21
319.637
  0
LINE
  8
0
 10
68.7634
 20
319.637
 11
69.4982
 21
321.47
  0
LINE
  8
0
 10
69.4982
 20
321.47
 11
70.7886
 21
322.966
  0
LINE
  8
0
 10
70.7886
 20
322.966
 11
72.4945
 21
323.961
  0
LINE
  8
0
 10
72.4945
 20
323.961
 11
74.4313
 21
324.348
  0
LINE
  8
0
 10
74.4313
 20
324.348
 11
76.3889
 21
324.086
  0
LINE
  8
0
 10
76.3889
 20
324.086
 11
78.1553
 21
323.202
  0
LINE
  8
0
 10
78.1553
 20
323.202
 11
79.539
 21
321.793
  0
LINE
  8
0
 10
79.539
 20
321.793
 11
80.3902
 21
320.011
  0
LINE
  8
0
 10
80.3902
 20
320.011
 11
80.6165
 21
318.049
  0
LINE
  8
0
 10
80.6165
 20
318.049
 11
80.1934
 21
316.119
  0
LINE
  8
0
 10
80.1934
 20
316.119
 11
79.1668
 21
314.432
  0
LINE
  8
0
 10
79.1668
 20
314.432
 11
77.648
 21
313.169
  0
LINE
  8
0
 10
77.648
 20
313.169
 11
75.8014
 21
312.468
  0
LINE
  8
0
 10
75.8014
 20
312.468
 11
73.8273
 21
312.405
  0
LINE
  8
0
 10
73.8273
 20
312.405
 11
71.9395
 21
312.986
  0
LINE
  8
0
 10
273.246
 20
312.742
 11
271.54
 21
313.738
  0
LINE
  8
0
 10
271.54
 20
313.738
 11
270.25
 21
315.233
  0
LINE
  8
0
 10
270.25
 20
315.233
 11
269.515
 21
317.066
  0
LINE
  8
0
 10
269.515
 20
317.066
 11
269.415
 21
319.039
  0
LINE
  8
0
 10
269.415
 20
319.039
 11
269.962
 21
320.937
  0
LINE
  8
0
 10
269.962
 20
320.937
 11
271.094
 21
322.555
  0
LINE
  8
0
 10
271.094
 20
322.555
 11
272.691
 21
323.718
  0
LINE
  8
0
 10
272.691
 20
323.718
 11
274.579
 21
324.298
  0
LINE
  8
0
 10
274.579
 20
324.298
 11
276.553
 21
324.235
  0
LINE
  8
0
 10
276.553
 20
324.235
 11
278.4
 21
323.534
  0
LINE
  8
0
 10
278.4
 20
323.534
 11
279.919
 21
322.271
  0
LINE
  8
0
 10
279.919
 20
322.271
 11
280.945
 21
320.584
  0
LINE
  8
0
 10
280.945
 20
320.584
 11
281.368
 21
318.655
  0
LINE
  8
0
 10
281.368
 20
318.655
 11
281.142
 21
316.692
  0
LINE
  8
0
 10
281.142
 20
316.692
 11
280.291
 21
314.91
  0
LINE
  8
0
 10
280.291
 20
314.91
 11
278.907
 21
313.501
  0
LINE
  8
0
 10
278.907
 20
313.501
 11
277.141
 21
312.617
  0
LINE
  8
0
 10
277.141
 20
312.617
 11
275.183
 21
312.355
  0
LINE
  8
0
 10
275.183
 20
312.355
 11
273.246
 21
312.742
  0
ENDSEC
  0
SECTION
  2
OBJECTS
  0
DICTIONARY
  0
ENDSEC
  0
EOF
